  0
SECTION
  2
HEADER
  9
$ACADVER
  1
AC1024
  9
$ACADMAINTVER
 70
     6
  9
$DWGCODEPAGE
  3
UNDEFINED
  9
$INSBASE
 10
0.0
 20
0.0
 30
0.0
  9
$EXTMIN
 10
1.000000000000000E+20
 20
1.000000000000000E+20
 30
1.000000000000000E+20
  9
$EXTMAX
 10
-1.000000000000000E+20
 20
-1.000000000000000E+20
 30
-1.000000000000000E+20
  9
$LIMMIN
 10
0.0
 20
0.0
  9
$LIMMAX
 10
12.0
 20
9.0
  9
$ORTHOMODE
 70
     0
  9
$REGENMODE
 70
     1
  9
$FILLMODE
 70
     1
  9
$QTEXTMODE
 70
     0
  9
$MIRRTEXT
 70
     1
  9
$LTSCALE
 40
1.0
  9
$ATTMODE
 70
     1
  9
$TEXTSIZE
 40
0.2
  9
$TRACEWID
 40
0.05
  9
$TEXTSTYLE
  7
Standard
  9
$CLAYER
  8
0
  9
$CELTYPE
  6
ByLayer
  9
$CECOLOR
 62
   256
  9
$CELTSCALE
 40
1.0
  9
$DISPSILH
 70
     0
  9
$DIMSCALE
 40
1.0
  9
$DIMASZ
 40
0.18
  9
$DIMEXO
 40
0.0625
  9
$DIMDLI
 40
0.38
  9
$DIMRND
 40
0.0
  9
$DIMDLE
 40
0.0
  9
$DIMEXE
 40
0.18
  9
$DIMTP
 40
0.0
  9
$DIMTM
 40
0.0
  9
$DIMTXT
 40
0.18
  9
$DIMCEN
 40
0.09
  9
$DIMTSZ
 40
0.0
  9
$DIMTOL
 70
     0
  9
$DIMLIM
 70
     0
  9
$DIMTIH
 70
     1
  9
$DIMTOH
 70
     1
  9
$DIMSE1
 70
     0
  9
$DIMSE2
 70
     0
  9
$DIMTAD
 70
     0
  9
$DIMZIN
 70
     0
  9
$DIMBLK
  1

  9
$DIMASO
 70
     1
  9
$DIMSHO
 70
     1
  9
$DIMPOST
  1

  9
$DIMAPOST
  1

  9
$DIMALT
 70
     0
  9
$DIMALTD
 70
     2
  9
$DIMALTF
 40
25.4
  9
$DIMLFAC
 40
1.0
  9
$DIMTOFL
 70
     0
  9
$DIMTVP
 40
0.0
  9
$DIMTIX
 70
     0
  9
$DIMSOXD
 70
     0
  9
$DIMSAH
 70
     0
  9
$DIMBLK1
  1

  9
$DIMBLK2
  1

  9
$DIMSTYLE
  2
Standard
  9
$DIMCLRD
 70
     0
  9
$DIMCLRE
 70
     0
  9
$DIMCLRT
 70
     0
  9
$DIMTFAC
 40
1.0
  9
$DIMGAP
 40
0.09
  9
$DIMJUST
 70
     0
  9
$DIMSD1
 70
     0
  9
$DIMSD2
 70
     0
  9
$DIMTOLJ
 70
     1
  9
$DIMTZIN
 70
     0
  9
$DIMALTZ
 70
     0
  9
$DIMALTTZ
 70
     0
  9
$DIMUPT
 70
     0
  9
$DIMDEC
 70
     4
  9
$DIMTDEC
 70
     4
  9
$DIMALTU
 70
     2
  9
$DIMALTTD
 70
     2
  9
$DIMTXSTY
  7
Standard
  9
$DIMAUNIT
 70
     0
  9
$DIMADEC
 70
     0
  9
$DIMALTRND
 40
0.0
  9
$DIMAZIN
 70
     0
  9
$DIMDSEP
 70
    46
  9
$DIMATFIT
 70
     3
  9
$DIMFRAC
 70
     0
  9
$DIMLDRBLK
  1

  9
$DIMLUNIT
 70
     2
  9
$DIMLWD
 70
    -2
  9
$DIMLWE
 70
    -2
  9
$DIMTMOVE
 70
     0
  9
$DIMFXL
 40
1.0
  9
$DIMFXLON
 70
     0
  9
$DIMJOGANG
 40
0.7853981633974483
  9
$DIMTFILL
 70
     0
  9
$DIMTFILLCLR
 70
     0
  9
$DIMARCSYM
 70
     0
  9
$DIMLTYPE
  6

  9
$DIMLTEX1
  6

  9
$DIMLTEX2
  6

  9
$DIMTXTDIRECTION
 70
     0
  9
$LUNITS
 70
     2
  9
$LUPREC
 70
     4
  9
$SKETCHINC
 40
0.1
  9
$FILLETRAD
 40
0.5
  9
$AUNITS
 70
     0
  9
$AUPREC
 70
     0
  9
$MENU
  1
.
  9
$ELEVATION
 40
0.0
  9
$PELEVATION
 40
0.0
  9
$THICKNESS
 40
0.0
  9
$LIMCHECK
 70
     0
  9
$CHAMFERA
 40
0.5
  9
$CHAMFERB
 40
0.5
  9
$CHAMFERC
 40
1.0
  9
$CHAMFERD
 40
0.0
  9
$SKPOLY
 70
     0
  9
$TDCREATE
 40
2458946.516932859
  9
$TDUCREATE
 40
2458946.475266204
  9
$TDUPDATE
 40
2458946.516932859
  9
$TDUUPDATE
 40
2458946.475266204
  9
$TDINDWG
 40
0.0000000116
  9
$TDUSRTIMER
 40
0.0000000116
  9
$USRTIMER
 70
     1
  9
$ANGBASE
 50
0.0
  9
$ANGDIR
 70
     0
  9
$PDMODE
 70
     0
  9
$PDSIZE
 40
0.0
  9
$PLINEWID
 40
0.0
  9
$SPLFRAME
 70
     0
  9
$SPLINETYPE
 70
     6
  9
$SPLINESEGS
 70
     8
  9
$HANDSEED
  5
68
  9
$SURFTAB1
 70
     6
  9
$SURFTAB2
 70
     6
  9
$SURFTYPE
 70
     6
  9
$SURFU
 70
     6
  9
$SURFV
 70
     6
  9
$UCSBASE
  2

  9
$UCSNAME
  2

  9
$UCSORG
 10
0.0
 20
0.0
 30
0.0
  9
$UCSXDIR
 10
1.0
 20
0.0
 30
0.0
  9
$UCSYDIR
 10
0.0
 20
1.0
 30
0.0
  9
$UCSORTHOREF
  2

  9
$UCSORTHOVIEW
 70
     0
  9
$UCSORGTOP
 10
0.0
 20
0.0
 30
0.0
  9
$UCSORGBOTTOM
 10
0.0
 20
0.0
 30
0.0
  9
$UCSORGLEFT
 10
0.0
 20
0.0
 30
0.0
  9
$UCSORGRIGHT
 10
0.0
 20
0.0
 30
0.0
  9
$UCSORGFRONT
 10
0.0
 20
0.0
 30
0.0
  9
$UCSORGBACK
 10
0.0
 20
0.0
 30
0.0
  9
$PUCSBASE
  2

  9
$PUCSNAME
  2

  9
$PUCSORG
 10
0.0
 20
0.0
 30
0.0
  9
$PUCSXDIR
 10
1.0
 20
0.0
 30
0.0
  9
$PUCSYDIR
 10
0.0
 20
1.0
 30
0.0
  9
$PUCSORTHOREF
  2

  9
$PUCSORTHOVIEW
 70
     0
  9
$PUCSORGTOP
 10
0.0
 20
0.0
 30
0.0
  9
$PUCSORGBOTTOM
 10
0.0
 20
0.0
 30
0.0
  9
$PUCSORGLEFT
 10
0.0
 20
0.0
 30
0.0
  9
$PUCSORGRIGHT
 10
0.0
 20
0.0
 30
0.0
  9
$PUCSORGFRONT
 10
0.0
 20
0.0
 30
0.0
  9
$PUCSORGBACK
 10
0.0
 20
0.0
 30
0.0
  9
$USERI1
 70
     0
  9
$USERI2
 70
     0
  9
$USERI3
 70
     0
  9
$USERI4
 70
     0
  9
$USERI5
 70
     0
  9
$USERR1
 40
0.0
  9
$USERR2
 40
0.0
  9
$USERR3
 40
0.0
  9
$USERR4
 40
0.0
  9
$USERR5
 40
0.0
  9
$WORLDVIEW
 70
     1
  9
$SHADEDGE
 70
     3
  9
$SHADEDIF
 70
    70
  9
$TILEMODE
 70
     1
  9
$MAXACTVP
 70
    64
  9
$PINSBASE
 10
0.0
 20
0.0
 30
0.0
  9
$PLIMCHECK
 70
     0
  9
$PEXTMIN
 10
1.000000000000000E+20
 20
1.000000000000000E+20
 30
1.000000000000000E+20
  9
$PEXTMAX
 10
-1.000000000000000E+20
 20
-1.000000000000000E+20
 30
-1.000000000000000E+20
  9
$PLIMMIN
 10
0.0
 20
0.0
  9
$PLIMMAX
 10
12.0
 20
9.0
  9
$UNITMODE
 70
     0
  9
$VISRETAIN
 70
     1
  9
$PLINEGEN
 70
     0
  9
$PSLTSCALE
 70
     1
  9
$TREEDEPTH
 70
  3020
  9
$CMLSTYLE
  2
Standard
  9
$CMLJUST
 70
     0
  9
$CMLSCALE
 40
1.0
  9
$PROXYGRAPHICS
 70
     1
  9
$MEASUREMENT
 70
     0
  9
$CELWEIGHT
370
    -1
  9
$ENDCAPS
280
     0
  9
$JOINSTYLE
280
     0
  9
$LWDISPLAY
290
     1
  9
$INSUNITS
 70
     4
  9
$HYPERLINKBASE
  1

  9
$STYLESHEET
  1

  9
$XEDIT
290
     1
  9
$CEPSNTYPE
380
     0
  9
$PSTYLEMODE
290
     1
  9
$FINGERPRINTGUID
  2
{AECD05D4-7229-91C9-629A-320E07483B5B}
  9
$VERSIONGUID
  2
{FAEB1C32-E019-11D5-929B-00C0DF256EC4}
  9
$EXTNAMES
290
     1
  9
$PSVPSCALE
 40
0.0
  9
$OLESTARTUP
290
     0
  9
$SORTENTS
280
   127
  9
$INDEXCTL
280
     0
  9
$HIDETEXT
280
     1
  9
$XCLIPFRAME
280
     2
  9
$HALOGAP
280
     0
  9
$OBSCOLOR
 70
   257
  9
$OBSLTYPE
280
     0
  9
$INTERSECTIONDISPLAY
280
     0
  9
$INTERSECTIONCOLOR
 70
   257
  9
$DIMASSOC
280
     2
  9
$PROJECTNAME
  1

  9
$CAMERADISPLAY
290
     0
  9
$LENSLENGTH
 40
50.0
  9
$CAMERAHEIGHT
 40
0.0
  9
$STEPSPERSEC
 40
2.0
  9
$STEPSIZE
 40
6.0
  9
$3DDWFPREC
 40
2.0
  9
$PSOLWIDTH
 40
0.25
  9
$PSOLHEIGHT
 40
4.0
  9
$LOFTANG1
 40
1.570796326794897
  9
$LOFTANG2
 40
1.570796326794897
  9
$LOFTMAG1
 40
0.0
  9
$LOFTMAG2
 40
0.0
  9
$LOFTPARAM
 70
     7
  9
$LOFTNORMALS
280
     1
  9
$LATITUDE
 40
37.795
  9
$LONGITUDE
 40
-122.394
  9
$NORTHDIRECTION
 40
0.0
  9
$TIMEZONE
 70
 -8000
  9
$LIGHTGLYPHDISPLAY
280
     1
  9
$TILEMODELIGHTSYNCH
280
     1
  9
$CMATERIAL
347
3C
  9
$SOLIDHIST
280
     1
  9
$SHOWHIST
280
     1
  9
$DWFFRAME
280
     2
  9
$DGNFRAME
280
     2
  9
$REALWORLDSCALE
290
     1
  9
$INTERFERECOLOR
 62
   256
  9
$CSHADOW
280
     0
  9
$SHADOWPLANELOCATION
 40
0.0
  0
ENDSEC
  0
SECTION
  2
CLASSES
  0
CLASS
  1
ACDBDICTIONARYWDFLT
  2
AcDbDictionaryWithDefault
  3
ObjectDBX Classes
 90
        0
 91
        4
280
     0
281
     0
  0
CLASS
  1
VISUALSTYLE
  2
AcDbVisualStyle
  3
ObjectDBX Classes
 90
     4095
 91
        4
280
     0
281
     0
  0
CLASS
  1
MATERIAL
  2
AcDbMaterial
  3
ObjectDBX Classes
 90
     1153
 91
        4
280
     0
281
     0
  0
CLASS
  1
SUN
  2
AcDbSun
  3
SCENEOE
 90
     1024
 91
        4
280
     0
281
     0
  0
ENDSEC
  0
SECTION
  2
TABLES
  0
TABLE
  2
VPORT
  5
8
330
0
100
AcDbSymbolTable
 70
     1
  0
VPORT
  5
29
330
8
100
AcDbSymbolTableRecord
100
AcDbViewportTableRecord
  2
*Active
 70
     0
 10
0.0
 20
0.0
 11
1.0
 21
1.0
 12
0.0
 22
0.0
 13
0.0
 23
0.0
 14
0.5
 24
0.5
 15
0.5
 25
0.5
 16
0.0
 26
0.0
 36
1.0
 17
582.7928349949709
 27
1224.991427992891
 37
0.0
 40
126.4385662437776
 41
3.837452266275038
 42
50.0
 43
0.0
 44
0.0
 50
0.0
 51
0.0
 71
     0
 72
   100
 73
     1
 74
     3
 75
     0
 76
     0
 77
     0
 78
     0
281
     0
 65
     1
110
0.0
120
0.0
130
0.0
111
1.0
121
0.0
131
0.0
112
0.0
122
1.0
132
0.0
 79
     0
146
0.0
 60
     3
 61
     5
292
     1
282
     1
141
0.0
142
0.0
 63
   250
361
3F
  0
ENDTAB
  0
TABLE
  2
LTYPE
  5
5
330
0
100
AcDbSymbolTable
 70
     1
  0
LTYPE
  5
14
330
5
100
AcDbSymbolTableRecord
100
AcDbLinetypeTableRecord
  2
ByBlock
 70
     0
  3

 72
    65
 73
     0
 40
0.0
  0
LTYPE
  5
15
330
5
100
AcDbSymbolTableRecord
100
AcDbLinetypeTableRecord
  2
ByLayer
 70
     0
  3

 72
    65
 73
     0
 40
0.0
  0
LTYPE
  5
16
330
5
100
AcDbSymbolTableRecord
100
AcDbLinetypeTableRecord
  2
Continuous
 70
     0
  3
Solid line
 72
    65
 73
     0
 40
0.0
  0
ENDTAB
  0
TABLE
  2
LAYER
  5
2
330
0
100
AcDbSymbolTable
 70
     2
  0
LAYER
  5
10
330
2
100
AcDbSymbolTableRecord
100
AcDbLayerTableRecord
  2
0
 70
     0
 62
     7
  6
Continuous
370
    -3
390
F
347
3E
  0
LAYER
  5
40
330
2
100
AcDbSymbolTableRecord
100
AcDbLayerTableRecord
  2
Layer 0_U+2020Image
 70
     0
 62
     7
  6
Continuous
370
    -3
390
F
347
3E
  0
ENDTAB
  0
TABLE
  2
STYLE
  5
3
330
0
100
AcDbSymbolTable
 70
     1
  0
STYLE
  5
11
330
3
100
AcDbSymbolTableRecord
100
AcDbTextStyleTableRecord
  2
Standard
 70
     0
 40
0.0
 41
1.0
 50
0.0
 71
     0
 42
0.2
  3
txt
  4

  0
ENDTAB
  0
TABLE
  2
VIEW
  5
6
330
0
100
AcDbSymbolTable
 70
     0
  0
ENDTAB
  0
TABLE
  2
UCS
  5
7
330
0
100
AcDbSymbolTable
 70
     0
  0
ENDTAB
  0
TABLE
  2
APPID
  5
9
330
0
100
AcDbSymbolTable
 70
     1
  0
APPID
  5
12
330
9
100
AcDbSymbolTableRecord
100
AcDbRegAppTableRecord
  2
ACAD
 70
     0
  0
ENDTAB
  0
TABLE
  2
DIMSTYLE
  5
A
330
0
100
AcDbSymbolTable
 70
     1
100
AcDbDimStyleTable
  0
DIMSTYLE
105
27
330
A
100
AcDbSymbolTableRecord
100
AcDbDimStyleTableRecord
  2
Standard
 70
     0
178
     0
340
11
  0
ENDTAB
  0
TABLE
  2
BLOCK_RECORD
  5
1
330
0
100
AcDbSymbolTable
 70
     3
  0
BLOCK_RECORD
  5
1F
330
1
100
AcDbSymbolTableRecord
100
AcDbBlockTableRecord
  2
*Model_Space
340
22
 70
     0
280
     1
281
     0
  0
BLOCK_RECORD
  5
1B
330
1
100
AcDbSymbolTableRecord
100
AcDbBlockTableRecord
  2
*Paper_Space
340
1E
 70
     0
280
     1
281
     0
  0
BLOCK_RECORD
  5
23
330
1
100
AcDbSymbolTableRecord
100
AcDbBlockTableRecord
  2
*Paper_Space0
340
26
 70
     0
280
     1
281
     0
  0
BLOCK_RECORD
  5
41
330
1
100
AcDbSymbolTableRecord
100
AcDbBlockTableRecord
  2
block 2
340
0
102
{BLKREFS
331
42
102
}
 70
     0
280
     1
281
     0
  0
BLOCK_RECORD
  5
47
330
1
100
AcDbSymbolTableRecord
100
AcDbBlockTableRecord
  2
block 3
340
0
102
{BLKREFS
331
48
102
}
 70
     0
280
     1
281
     0
  0
ENDTAB
  0
ENDSEC
  0
SECTION
  2
BLOCKS
  0
BLOCK
  5
20
330
1F
100
AcDbEntity
  8
0
100
AcDbBlockBegin
  2
*Model_Space
 70
     0
 10
0.0
 20
0.0
 30
0.0
  3
*Model_Space
  1

  0
ENDBLK
  5
21
330
1F
100
AcDbEntity
  8
0
100
AcDbBlockEnd
  0
BLOCK
  5
1C
330
1B
100
AcDbEntity
 67
     1
  8
0
100
AcDbBlockBegin
  2
*Paper_Space
 70
     0
 10
0.0
 20
0.0
 30
0.0
  3
*Paper_Space
  1

  0
ENDBLK
  5
1D
330
1B
100
AcDbEntity
 67
     1
  8
0
100
AcDbBlockEnd
  0
BLOCK
  5
24
330
23
100
AcDbEntity
  8
0
100
AcDbBlockBegin
  2
*Paper_Space0
 70
     0
 10
0.0
 20
0.0
 30
0.0
  3
*Paper_Space0
  1

  0
ENDBLK
  5
25
330
23
100
AcDbEntity
  8
0
100
AcDbBlockEnd
  0
BLOCK
  5
43
330
41
100
AcDbEntity
  8
0
100
AcDbBlockBegin
  2
block 2
 70
     0
 10
0.0
 20
0.0
 30
0.0
  3
block 2
  1

  0
SPLINE
  5
45
330
41
100
AcDbEntity
  8
Layer 0_U+2020Image
370
     0
100
AcDbSpline
210
0.0
220
0.0
230
1.0
 70
    11
 71
     3
 72
    17
 73
    13
 74
     0
 42
0.0000000001
 43
0.0000000001
 12
1.0
 22
0.0
 32
0.0
 13
1.0
 23
0.0
 33
0.0
 40
0.0
 40
0.0
 40
0.0
 40
0.0
 40
1.0
 40
1.0
 40
1.0
 40
2.0
 40
2.0
 40
2.0
 40
3.0
 40
3.0
 40
3.0
 40
4.0
 40
4.0
 40
4.0
 40
4.0
 10
731.0808764195874
 20
1226.022516482429
 30
0.0
 10
731.0808764195874
 20
1224.918039816039
 30
0.0
 10
730.1854911420336
 20
1224.022478149596
 30
0.0
 10
729.0810144756433
 20
1224.022478149596
 30
0.0
 10
727.976502531475
 20
1224.022478149596
 30
0.0
 10
727.0807997539209
 20
1224.918039816039
 30
0.0
 10
727.0807997539209
 20
1226.022516482429
 30
0.0
 10
727.0807997539209
 20
1227.126852037708
 30
0.0
 10
727.976502531475
 20
1228.022554815262
 30
0.0
 10
729.0810144756433
 20
1228.022554815262
 30
0.0
 10
730.1854911420336
 20
1228.022554815262
 30
0.0
 10
731.0808764195874
 20
1227.126852037708
 30
0.0
 10
731.0808764195874
 20
1226.022516482429
 30
0.0
  0
HATCH
  5
46
330
41
100
AcDbEntity
  8
Layer 0_U+2020Image
 62
   251
420
  6381921
100
AcDbHatch
 10
0.0
 20
0.0
 30
0.0
210
0.0
220
0.0
230
1.0
  2
SOLID
 70
     1
 71
     0
 91
        1
 92
        1
 93
        1
 72
     4
 94
        3
 73
     0
 74
     1
 95
       17
 96
       13
 40
0.0
 40
0.0
 40
0.0
 40
0.0
 40
1.0
 40
1.0
 40
1.0
 40
2.0
 40
2.0
 40
2.0
 40
3.0
 40
3.0
 40
3.0
 40
4.0
 40
4.0
 40
4.0
 40
4.0
 10
731.0808764195874
 20
1226.022516482429
 10
731.0808764195874
 20
1224.918039816039
 10
730.1854911420336
 20
1224.022478149596
 10
729.0810144756433
 20
1224.022478149596
 10
727.976502531475
 20
1224.022478149596
 10
727.0807997539209
 20
1224.918039816039
 10
727.0807997539209
 20
1226.022516482429
 10
727.0807997539209
 20
1227.126852037708
 10
727.976502531475
 20
1228.022554815262
 10
729.0810144756433
 20
1228.022554815262
 10
730.1854911420336
 20
1228.022554815262
 10
731.0808764195874
 20
1227.126852037708
 10
731.0808764195874
 20
1226.022516482429
 97
        0
 97
        0
 75
     0
 76
     1
 98
        0
  0
INSERT
  5
48
330
41
100
AcDbEntity
  8
Layer 0_U+2020Image
100
AcDbBlockReference
  2
block 3
 10
0.0
 20
0.0
 30
0.0
  0
SPLINE
  5
4C
330
41
100
AcDbEntity
  8
Layer 0_U+2020Image
370
     0
100
AcDbSpline
210
0.0
220
0.0
230
1.0
 70
    11
 71
     3
 72
    17
 73
    13
 74
     0
 42
0.0000000001
 43
0.0000000001
 12
1.0
 22
0.0
 32
0.0
 13
1.0
 23
0.0
 33
0.0
 40
0.0
 40
0.0
 40
0.0
 40
0.0
 40
1.0
 40
1.0
 40
1.0
 40
2.0
 40
2.0
 40
2.0
 40
3.0
 40
3.0
 40
3.0
 40
4.0
 40
4.0
 40
4.0
 40
4.0
 10
431.9211934388221
 20
1199.08997926694
 30
0.0
 10
431.933434827708
 20
1197.985467322772
 30
0.0
 10
431.0482095501516
 20
1197.080274822998
 30
0.0
 10
429.9436976059832
 20
1197.067857045223
 30
0.0
 10
428.8392209395924
 20
1197.055474545227
 30
0.0
 10
427.9338520509299
 20
1197.940699822783
 30
0.0
 10
427.9216106620441
 20
1199.045529266951
 30
0.0
 10
427.9093692731582
 20
1200.149688433342
 30
0.0
 10
428.7944181618257
 20
1201.055410099782
 30
0.0
 10
429.898930105994
 20
1201.067439822001
 30
0.0
 10
431.0034067723848
 20
1201.080210377554
 30
0.0
 10
431.9088109388248
 20
1200.194455933331
 30
0.0
 10
431.9211934388221
 20
1199.08997926694
 30
0.0
  0
HATCH
  5
4D
330
41
100
AcDbEntity
  8
Layer 0_U+2020Image
 62
   251
420
  6381921
100
AcDbHatch
 10
0.0
 20
0.0
 30
0.0
210
0.0
220
0.0
230
1.0
  2
SOLID
 70
     1
 71
     0
 91
        1
 92
        1
 93
        1
 72
     4
 94
        3
 73
     0
 74
     1
 95
       17
 96
       13
 40
0.0
 40
0.0
 40
0.0
 40
0.0
 40
1.0
 40
1.0
 40
1.0
 40
2.0
 40
2.0
 40
2.0
 40
3.0
 40
3.0
 40
3.0
 40
4.0
 40
4.0
 40
4.0
 40
4.0
 10
431.9211934388221
 20
1199.08997926694
 10
431.933434827708
 20
1197.985467322772
 10
431.0482095501516
 20
1197.080274822998
 10
429.9436976059832
 20
1197.067857045223
 10
428.8392209395924
 20
1197.055474545227
 10
427.9338520509299
 20
1197.940699822783
 10
427.9216106620441
 20
1199.045529266951
 10
427.9093692731582
 20
1200.149688433342
 10
428.7944181618257
 20
1201.055410099782
 10
429.898930105994
 20
1201.067439822001
 10
431.0034067723848
 20
1201.080210377554
 10
431.9088109388248
 20
1200.194455933331
 10
431.9211934388221
 20
1199.08997926694
 97
        0
 97
        0
 75
     0
 76
     1
 98
        0
  0
SPLINE
  5
4E
330
41
100
AcDbEntity
  8
Layer 0_U+2020Image
370
     0
100
AcDbSpline
210
0.0
220
0.0
230
1.0
 70
    11
 71
     3
 72
    17
 73
    13
 74
     0
 42
0.0000000001
 43
0.0000000001
 12
1.0
 22
0.0
 32
0.0
 13
1.0
 23
0.0
 33
0.0
 40
0.0
 40
0.0
 40
0.0
 40
0.0
 40
1.0
 40
1.0
 40
1.0
 40
2.0
 40
2.0
 40
2.0
 40
3.0
 40
3.0
 40
3.0
 40
4.0
 40
4.0
 40
4.0
 40
4.0
 10
447.9352231570406
 20
1199.269119822451
 30
0.0
 10
447.947429268149
 20
1198.164607878283
 30
0.0
 10
447.0620628794812
 20
1197.25923898962
 30
0.0
 10
445.9577273242018
 20
1197.246856489623
 30
0.0
 10
444.8533917689223
 20
1197.234438711848
 30
0.0
 10
443.9476701024821
 20
1198.120157878294
 30
0.0
 10
443.9352876024848
 20
1199.224317044684
 30
0.0
 10
443.9228698247107
 20
1200.328828988853
 30
0.0
 10
444.8086242689337
 20
1201.234197877515
 30
0.0
 10
445.9131009353239
 20
1201.246756766401
 30
0.0
 10
447.0174364906034
 20
1201.258998155286
 30
0.0
 10
447.9228053792659
 20
1200.373596488841
 30
0.0
 10
447.9352231570406
 20
1199.269119822451
 30
0.0
  0
HATCH
  5
4F
330
41
100
AcDbEntity
  8
Layer 0_U+2020Image
 62
   251
420
  6381921
100
AcDbHatch
 10
0.0
 20
0.0
 30
0.0
210
0.0
220
0.0
230
1.0
  2
SOLID
 70
     1
 71
     0
 91
        1
 92
        1
 93
        1
 72
     4
 94
        3
 73
     0
 74
     1
 95
       17
 96
       13
 40
0.0
 40
0.0
 40
0.0
 40
0.0
 40
1.0
 40
1.0
 40
1.0
 40
2.0
 40
2.0
 40
2.0
 40
3.0
 40
3.0
 40
3.0
 40
4.0
 40
4.0
 40
4.0
 40
4.0
 10
447.9352231570406
 20
1199.269119822451
 10
447.947429268149
 20
1198.164607878283
 10
447.0620628794812
 20
1197.25923898962
 10
445.9577273242018
 20
1197.246856489623
 10
444.8533917689223
 20
1197.234438711848
 10
443.9476701024821
 20
1198.120157878294
 10
443.9352876024848
 20
1199.224317044684
 10
443.9228698247107
 20
1200.328828988853
 10
444.8086242689337
 20
1201.234197877515
 10
445.9131009353239
 20
1201.246756766401
 10
447.0174364906034
 20
1201.258998155286
 10
447.9228053792659
 20
1200.373596488841
 10
447.9352231570406
 20
1199.269119822451
 97
        0
 97
        0
 75
     0
 76
     1
 98
        0
  0
SPLINE
  5
50
330
41
100
AcDbEntity
  8
Layer 0_U+2020Image
370
     0
100
AcDbSpline
210
0.0
220
0.0
230
1.0
 70
    11
 71
     3
 72
    17
 73
    13
 74
     0
 42
0.0000000001
 43
0.0000000001
 12
1.0
 22
0.0
 32
0.0
 13
1.0
 23
0.0
 33
0.0
 40
0.0
 40
0.0
 40
0.0
 40
0.0
 40
1.0
 40
1.0
 40
1.0
 40
2.0
 40
2.0
 40
2.0
 40
3.0
 40
3.0
 40
3.0
 40
4.0
 40
4.0
 40
4.0
 40
4.0
 10
720.697709199961
 20
1200.395997877725
 30
0.0
 10
720.7400778110615
 20
1199.292191489112
 30
0.0
 10
719.8796880890546
 20
1198.362868989344
 30
0.0
 10
718.7758817004418
 20
1198.320676767132
 30
0.0
 10
717.6723928118286
 20
1198.278308156032
 30
0.0
 10
716.74324670095
 20
1199.138874266928
 30
0.0
 10
716.7010544787382
 20
1200.242715933319
 30
0.0
 10
716.6585094787488
 20
1201.346169544154
 30
0.0
 10
717.5189344785338
 20
1202.275492043921
 30
0.0
 10
718.6227408671466
 20
1202.318037043911
 30
0.0
 10
719.7265472557594
 20
1202.360405655011
 30
0.0
 10
720.6551641999721
 20
1201.499486766338
 30
0.0
 10
720.697709199961
 20
1200.395997877725
 30
0.0
  0
HATCH
  5
51
330
41
100
AcDbEntity
  8
Layer 0_U+2020Image
 62
   251
420
  6381921
100
AcDbHatch
 10
0.0
 20
0.0
 30
0.0
210
0.0
220
0.0
230
1.0
  2
SOLID
 70
     1
 71
     0
 91
        1
 92
        1
 93
        1
 72
     4
 94
        3
 73
     0
 74
     1
 95
       17
 96
       13
 40
0.0
 40
0.0
 40
0.0
 40
0.0
 40
1.0
 40
1.0
 40
1.0
 40
2.0
 40
2.0
 40
2.0
 40
3.0
 40
3.0
 40
3.0
 40
4.0
 40
4.0
 40
4.0
 40
4.0
 10
720.697709199961
 20
1200.395997877725
 10
720.7400778110615
 20
1199.292191489112
 10
719.8796880890546
 20
1198.362868989344
 10
718.7758817004418
 20
1198.320676767132
 10
717.6723928118286
 20
1198.278308156032
 10
716.74324670095
 20
1199.138874266928
 10
716.7010544787382
 20
1200.242715933319
 10
716.6585094787488
 20
1201.346169544154
 10
717.5189344785338
 20
1202.275492043921
 10
718.6227408671466
 20
1202.318037043911
 10
719.7265472557594
 20
1202.360405655011
 10
720.6551641999721
 20
1201.499486766338
 10
720.697709199961
 20
1200.395997877725
 97
        0
 97
        0
 75
     0
 76
     1
 98
        0
  0
SPLINE
  5
52
330
41
100
AcDbEntity
  8
Layer 0_U+2020Image
370
     0
100
AcDbSpline
210
0.0
220
0.0
230
1.0
 70
    11
 71
     3
 72
    17
 73
    13
 74
     0
 42
0.0000000001
 43
0.0000000001
 12
1.0
 22
0.0
 32
0.0
 13
1.0
 23
0.0
 33
0.0
 40
0.0
 40
0.0
 40
0.0
 40
0.0
 40
1.0
 40
1.0
 40
1.0
 40
2.0
 40
2.0
 40
2.0
 40
3.0
 40
3.0
 40
3.0
 40
4.0
 40
4.0
 40
4.0
 40
4.0
 10
736.7549541959469
 20
1199.599496211257
 30
0.0
 10
736.7974991959363
 20
1198.496042600422
 30
0.0
 10
735.9371094739289
 20
1197.566720100654
 30
0.0
 10
734.8332678075385
 20
1197.524527878442
 30
0.0
 10
733.7298141967035
 20
1197.482159267342
 30
0.0
 10
732.8003505858245
 20
1198.342725378238
 30
0.0
 10
732.7581230858347
 20
1199.446531766851
 30
0.0
 10
732.7155780858459
 20
1200.550338155464
 30
0.0
 10
733.5761794745191
 20
1201.479307877454
 30
0.0
 10
734.6801622520209
 20
1201.521676488554
 30
0.0
 10
735.7837922517455
 20
1201.564080377433
 30
0.0
 10
736.7127619737353
 20
1200.70330259987
 30
0.0
 10
736.7549541959469
 20
1199.599496211257
 30
0.0
  0
HATCH
  5
53
330
41
100
AcDbEntity
  8
Layer 0_U+2020Image
 62
   251
420
  6381921
100
AcDbHatch
 10
0.0
 20
0.0
 30
0.0
210
0.0
220
0.0
230
1.0
  2
SOLID
 70
     1
 71
     0
 91
        1
 92
        1
 93
        1
 72
     4
 94
        3
 73
     0
 74
     1
 95
       17
 96
       13
 40
0.0
 40
0.0
 40
0.0
 40
0.0
 40
1.0
 40
1.0
 40
1.0
 40
2.0
 40
2.0
 40
2.0
 40
3.0
 40
3.0
 40
3.0
 40
4.0
 40
4.0
 40
4.0
 40
4.0
 10
736.7549541959469
 20
1199.599496211257
 10
736.7974991959363
 20
1198.496042600422
 10
735.9371094739289
 20
1197.566720100654
 10
734.8332678075385
 20
1197.524527878442
 10
733.7298141967035
 20
1197.482159267342
 10
732.8003505858245
 20
1198.342725378238
 10
732.7581230858347
 20
1199.446531766851
 10
732.7155780858459
 20
1200.550338155464
 10
733.5761794745191
 20
1201.479307877454
 10
734.6801622520209
 20
1201.521676488554
 10
735.7837922517455
 20
1201.564080377433
 10
736.7127619737353
 20
1200.70330259987
 10
736.7549541959469
 20
1199.599496211257
 97
        0
 97
        0
 75
     0
 76
     1
 98
        0
  0
SPLINE
  5
54
330
41
100
AcDbEntity
  8
Layer 0_U+2020Image
370
     0
100
AcDbSpline
210
0.0
220
0.0
230
1.0
 70
    11
 71
     3
 72
    17
 73
    13
 74
     0
 42
0.0000000001
 43
0.0000000001
 12
1.0
 22
0.0
 32
0.0
 13
1.0
 23
0.0
 33
0.0
 40
0.0
 40
0.0
 40
0.0
 40
0.0
 40
1.0
 40
1.0
 40
1.0
 40
2.0
 40
2.0
 40
2.0
 40
3.0
 40
3.0
 40
3.0
 40
4.0
 40
4.0
 40
4.0
 40
4.0
 10
794.7204000147889
 20
1234.341228147016
 30
0.0
 10
794.7324650147858
 20
1233.236716202848
 30
0.0
 10
793.8477689038955
 20
1232.330994536408
 30
0.0
 10
792.7432569597278
 20
1232.318964814188
 30
0.0
 10
791.6384275155591
 20
1232.306547036414
 30
0.0
 10
790.7330586268966
 20
1233.191948702859
 30
0.0
 10
790.720640849122
 20
1234.296425369249
 30
0.0
 10
790.7082583491253
 20
1235.400760924529
 30
0.0
 10
791.5936600155705
 20
1236.306658979858
 30
0.0
 10
792.6984894597385
 20
1236.318688702077
 30
0.0
 10
793.8029661261294
 20
1236.331106479852
 30
0.0
 10
794.7080175147915
 20
1235.445704813407
 30
0.0
 10
794.7204000147889
 20
1234.341228147016
 30
0.0
  0
HATCH
  5
55
330
41
100
AcDbEntity
  8
Layer 0_U+2020Image
 62
   251
420
  6381921
100
AcDbHatch
 10
0.0
 20
0.0
 30
0.0
210
0.0
220
0.0
230
1.0
  2
SOLID
 70
     1
 71
     0
 91
        1
 92
        1
 93
        1
 72
     4
 94
        3
 73
     0
 74
     1
 95
       17
 96
       13
 40
0.0
 40
0.0
 40
0.0
 40
0.0
 40
1.0
 40
1.0
 40
1.0
 40
2.0
 40
2.0
 40
2.0
 40
3.0
 40
3.0
 40
3.0
 40
4.0
 40
4.0
 40
4.0
 40
4.0
 10
794.7204000147889
 20
1234.341228147016
 10
794.7324650147858
 20
1233.236716202848
 10
793.8477689038955
 20
1232.330994536408
 10
792.7432569597278
 20
1232.318964814188
 10
791.6384275155591
 20
1232.306547036414
 10
790.7330586268966
 20
1233.191948702859
 10
790.720640849122
 20
1234.296425369249
 10
790.7082583491253
 20
1235.400760924529
 10
791.5936600155705
 20
1236.306658979858
 10
792.6984894597385
 20
1236.318688702077
 10
793.8029661261294
 20
1236.331106479852
 10
794.7080175147915
 20
1235.445704813407
 10
794.7204000147889
 20
1234.341228147016
 97
        0
 97
        0
 75
     0
 76
     1
 98
        0
  0
SPLINE
  5
56
330
41
100
AcDbEntity
  8
Layer 0_U+2020Image
370
     0
100
AcDbSpline
210
0.0
220
0.0
230
1.0
 70
    11
 71
     3
 72
    17
 73
    13
 74
     0
 42
0.0000000001
 43
0.0000000001
 12
1.0
 22
0.0
 32
0.0
 13
1.0
 23
0.0
 33
0.0
 40
0.0
 40
0.0
 40
0.0
 40
0.0
 40
1.0
 40
1.0
 40
1.0
 40
2.0
 40
2.0
 40
2.0
 40
3.0
 40
3.0
 40
3.0
 40
4.0
 40
4.0
 40
4.0
 40
4.0
 10
791.2760189045388
 20
1247.521111754832
 30
0.0
 10
791.2884014045353
 20
1246.416635088442
 30
0.0
 10
790.4030350158682
 20
1245.511266199779
 30
0.0
 10
789.2985230716998
 20
1245.498848422004
 30
0.0
 10
788.1940111275316
 20
1245.486607033118
 30
0.0
 10
787.2879719610918
 20
1246.371832310675
 30
0.0
 10
787.275906961094
 20
1247.476344254844
 30
0.0
 10
787.26348918332
 20
1248.580820921234
 30
0.0
 10
788.1488908497652
 20
1249.486189809896
 30
0.0
 10
789.2530500161558
 20
1249.498607587671
 30
0.0
 10
790.3582322381016
 20
1249.511025365446
 30
0.0
 10
791.263601126764
 20
1248.625623699001
 30
0.0
 10
791.2760189045388
 20
1247.521111754832
 30
0.0
  0
HATCH
  5
57
330
41
100
AcDbEntity
  8
Layer 0_U+2020Image
 62
   251
420
  6381921
100
AcDbHatch
 10
0.0
 20
0.0
 30
0.0
210
0.0
220
0.0
230
1.0
  2
SOLID
 70
     1
 71
     0
 91
        1
 92
        1
 93
        1
 72
     4
 94
        3
 73
     0
 74
     1
 95
       17
 96
       13
 40
0.0
 40
0.0
 40
0.0
 40
0.0
 40
1.0
 40
1.0
 40
1.0
 40
2.0
 40
2.0
 40
2.0
 40
3.0
 40
3.0
 40
3.0
 40
4.0
 40
4.0
 40
4.0
 40
4.0
 10
791.2760189045388
 20
1247.521111754832
 10
791.2884014045353
 20
1246.416635088442
 10
790.4030350158682
 20
1245.511266199779
 10
789.2985230716998
 20
1245.498848422004
 10
788.1940111275316
 20
1245.486607033118
 10
787.2879719610918
 20
1246.371832310675
 10
787.275906961094
 20
1247.476344254844
 10
787.26348918332
 20
1248.580820921234
 10
788.1488908497652
 20
1249.486189809896
 10
789.2530500161558
 20
1249.498607587671
 10
790.3582322381016
 20
1249.511025365446
 10
791.263601126764
 20
1248.625623699001
 10
791.2760189045388
 20
1247.521111754832
 97
        0
 97
        0
 75
     0
 76
     1
 98
        0
  0
SPLINE
  5
58
330
41
100
AcDbEntity
  8
Layer 0_U+2020Image
370
     0
100
AcDbSpline
210
0.0
220
0.0
230
1.0
 70
    11
 71
     3
 72
    17
 73
    13
 74
     0
 42
0.0000000001
 43
0.0000000001
 12
1.0
 22
0.0
 32
0.0
 13
1.0
 23
0.0
 33
0.0
 40
0.0
 40
0.0
 40
0.0
 40
0.0
 40
1.0
 40
1.0
 40
1.0
 40
2.0
 40
2.0
 40
2.0
 40
3.0
 40
3.0
 40
3.0
 40
4.0
 40
4.0
 40
4.0
 40
4.0
 10
380.5760106738803
 20
1251.778575087101
 30
0.0
 10
380.5882520627662
 20
1250.674063142933
 30
0.0
 10
379.7032031740987
 20
1249.76869425427
 30
0.0
 10
378.5985148410414
 20
1249.756311754273
 30
0.0
 10
377.4942145635401
 20
1249.743893976499
 30
0.0
 10
376.5886692859888
 20
1250.629648420722
 30
0.0
 10
376.5764278971029
 20
1251.733948698223
 30
0.0
 10
376.5640101193281
 20
1252.838284253503
 30
0.0
 10
377.4494117857734
 20
1253.744005919943
 30
0.0
 10
378.5539237299417
 20
1253.75638841994
 30
0.0
 10
379.658400396332
 20
1253.768629808826
 30
0.0
 10
380.5635928961062
 20
1252.883051753492
 30
0.0
 10
380.5760106738803
 20
1251.778575087101
 30
0.0
  0
HATCH
  5
59
330
41
100
AcDbEntity
  8
Layer 0_U+2020Image
 62
   251
420
  6381921
100
AcDbHatch
 10
0.0
 20
0.0
 30
0.0
210
0.0
220
0.0
230
1.0
  2
SOLID
 70
     1
 71
     0
 91
        1
 92
        1
 93
        1
 72
     4
 94
        3
 73
     0
 74
     1
 95
       17
 96
       13
 40
0.0
 40
0.0
 40
0.0
 40
0.0
 40
1.0
 40
1.0
 40
1.0
 40
2.0
 40
2.0
 40
2.0
 40
3.0
 40
3.0
 40
3.0
 40
4.0
 40
4.0
 40
4.0
 40
4.0
 10
380.5760106738803
 20
1251.778575087101
 10
380.5882520627662
 20
1250.674063142933
 10
379.7032031740987
 20
1249.76869425427
 10
378.5985148410414
 20
1249.756311754273
 10
377.4942145635401
 20
1249.743893976499
 10
376.5886692859888
 20
1250.629648420722
 10
376.5764278971029
 20
1251.733948698223
 10
376.5640101193281
 20
1252.838284253503
 10
377.4494117857734
 20
1253.744005919943
 10
378.5539237299417
 20
1253.75638841994
 10
379.658400396332
 20
1253.768629808826
 10
380.5635928961062
 20
1252.883051753492
 10
380.5760106738803
 20
1251.778575087101
 97
        0
 97
        0
 75
     0
 76
     1
 98
        0
  0
SPLINE
  5
5A
330
41
100
AcDbEntity
  8
Layer 0_U+2020Image
370
     0
100
AcDbSpline
210
0.0
220
0.0
230
1.0
 70
    11
 71
     3
 72
    17
 73
    13
 74
     0
 42
0.0000000001
 43
0.0000000001
 12
1.0
 22
0.0
 32
0.0
 13
1.0
 23
0.0
 33
0.0
 40
0.0
 40
0.0
 40
0.0
 40
0.0
 40
1.0
 40
1.0
 40
1.0
 40
2.0
 40
2.0
 40
2.0
 40
3.0
 40
3.0
 40
3.0
 40
4.0
 40
4.0
 40
4.0
 40
4.0
 10
376.7329906748412
 20
1237.711913979507
 30
0.0
 10
376.7455848415049
 20
1236.607402035339
 30
0.0
 10
375.8600067861707
 20
1235.702033146676
 30
0.0
 10
374.7557065086688
 20
1235.689615368902
 30
0.0
 10
373.6511945645004
 20
1235.677232868904
 30
0.0
 10
372.7456492869491
 20
1236.562634535349
 30
0.0
 10
372.7334078980632
 20
1237.667287590629
 30
0.0
 10
372.7208490091778
 20
1238.771623145909
 30
0.0
 10
373.6064270645119
 20
1239.676992034571
 30
0.0
 10
374.7110801197909
 20
1239.689374534568
 30
0.0
 10
375.8154156750704
 20
1239.701792312342
 30
0.0
 10
376.7207845637335
 20
1238.816390645897
 30
0.0
 10
376.7329906748412
 20
1237.711913979507
 30
0.0
  0
HATCH
  5
5B
330
41
100
AcDbEntity
  8
Layer 0_U+2020Image
 62
   251
420
  6381921
100
AcDbHatch
 10
0.0
 20
0.0
 30
0.0
210
0.0
220
0.0
230
1.0
  2
SOLID
 70
     1
 71
     0
 91
        1
 92
        1
 93
        1
 72
     4
 94
        3
 73
     0
 74
     1
 95
       17
 96
       13
 40
0.0
 40
0.0
 40
0.0
 40
0.0
 40
1.0
 40
1.0
 40
1.0
 40
2.0
 40
2.0
 40
2.0
 40
3.0
 40
3.0
 40
3.0
 40
4.0
 40
4.0
 40
4.0
 40
4.0
 10
376.7329906748412
 20
1237.711913979507
 10
376.7455848415049
 20
1236.607402035339
 10
375.8600067861707
 20
1235.702033146676
 10
374.7557065086688
 20
1235.689615368902
 10
373.6511945645004
 20
1235.677232868904
 10
372.7456492869491
 20
1236.562634535349
 10
372.7334078980632
 20
1237.667287590629
 10
372.7208490091778
 20
1238.771623145909
 10
373.6064270645119
 20
1239.676992034571
 10
374.7110801197909
 20
1239.689374534568
 10
375.8154156750704
 20
1239.701792312342
 10
376.7207845637335
 20
1238.816390645897
 10
376.7329906748412
 20
1237.711913979507
 97
        0
 97
        0
 75
     0
 76
     1
 98
        0
  0
SPLINE
  5
5C
330
41
100
AcDbEntity
  8
Layer 0_U+2020Image
370
     0
100
AcDbSpline
210
0.0
220
0.0
230
1.0
 70
    11
 71
     3
 72
    17
 73
    13
 74
     0
 42
0.0000000001
 43
0.0000000001
 12
1.0
 22
0.0
 32
0.0
 13
1.0
 23
0.0
 33
0.0
 40
0.0
 40
0.0
 40
0.0
 40
0.0
 40
1.0
 40
1.0
 40
1.0
 40
2.0
 40
2.0
 40
2.0
 40
3.0
 40
3.0
 40
3.0
 40
4.0
 40
4.0
 40
4.0
 40
4.0
 10
441.3728156586812
 20
1226.63522092672
 30
0.0
 10
441.385233436456
 20
1225.53106176033
 30
0.0
 10
440.4998317700107
 20
1224.625692871667
 30
0.0
 10
439.3953198258424
 20
1224.612957593893
 30
0.0
 10
438.2908431594515
 20
1224.600892593896
 30
0.0
 10
437.3856506596779
 20
1225.486294260341
 30
0.0
 10
437.3734092707921
 20
1226.590806204509
 30
0.0
 10
437.3609914930173
 20
1227.6952828709
 30
0.0
 10
438.2463931594632
 20
1228.600651759562
 30
0.0
 10
439.3507287147427
 20
1228.613069537337
 30
0.0
 10
440.455028992244
 20
1228.625275648445
 30
0.0
 10
441.3603978809064
 20
1227.739732870888
 30
0.0
 10
441.3728156586812
 20
1226.63522092672
 30
0.0
  0
HATCH
  5
5D
330
41
100
AcDbEntity
  8
Layer 0_U+2020Image
 62
   251
420
  6381921
100
AcDbHatch
 10
0.0
 20
0.0
 30
0.0
210
0.0
220
0.0
230
1.0
  2
SOLID
 70
     1
 71
     0
 91
        1
 92
        1
 93
        1
 72
     4
 94
        3
 73
     0
 74
     1
 95
       17
 96
       13
 40
0.0
 40
0.0
 40
0.0
 40
0.0
 40
1.0
 40
1.0
 40
1.0
 40
2.0
 40
2.0
 40
2.0
 40
3.0
 40
3.0
 40
3.0
 40
4.0
 40
4.0
 40
4.0
 40
4.0
 10
441.3728156586812
 20
1226.63522092672
 10
441.385233436456
 20
1225.53106176033
 10
440.4998317700107
 20
1224.625692871667
 10
439.3953198258424
 20
1224.612957593893
 10
438.2908431594515
 20
1224.600892593896
 10
437.3856506596779
 20
1225.486294260341
 10
437.3734092707921
 20
1226.590806204509
 10
437.3609914930173
 20
1227.6952828709
 10
438.2463931594632
 20
1228.600651759562
 10
439.3507287147427
 20
1228.613069537337
 10
440.455028992244
 20
1228.625275648445
 10
441.3603978809064
 20
1227.739732870888
 10
441.3728156586812
 20
1226.63522092672
 97
        0
 97
        0
 75
     0
 76
     1
 98
        0
  0
SPLINE
  5
5E
330
41
100
AcDbEntity
  8
Layer 0_U+2020Image
370
     0
100
AcDbSpline
210
0.0
220
0.0
230
1.0
 70
    11
 71
     3
 72
    17
 73
    13
 74
     0
 42
0.0000000001
 43
0.0000000001
 12
1.0
 22
0.0
 32
0.0
 13
1.0
 23
0.0
 33
0.0
 40
0.0
 40
0.0
 40
0.0
 40
0.0
 40
1.0
 40
1.0
 40
1.0
 40
2.0
 40
2.0
 40
2.0
 40
3.0
 40
3.0
 40
3.0
 40
4.0
 40
4.0
 40
4.0
 40
4.0
 10
422.9973620521638
 20
1218.42107259544
 30
0.0
 10
423.0097798299386
 20
1217.31659592905
 30
0.0
 10
422.1243781634933
 20
1216.411227040388
 30
0.0
 10
421.019866219325
 20
1216.398456484835
 30
0.0
 10
419.9153895529348
 20
1216.386426762616
 30
0.0
 10
419.0101970531612
 20
1217.271793151283
 30
0.0
 10
418.9979556642753
 20
1218.376305095452
 30
0.0
 10
418.9855378865005
 20
1219.48081703962
 30
0.0
 10
419.8709395529458
 20
1220.386185928283
 30
0.0
 10
420.9752751082253
 20
1220.39856842828
 30
0.0
 10
422.0795753857266
 20
1220.410809817166
 30
0.0
 10
422.9849795521672
 20
1219.525231761831
 30
0.0
 10
422.9973620521638
 20
1218.42107259544
 30
0.0
  0
HATCH
  5
5F
330
41
100
AcDbEntity
  8
Layer 0_U+2020Image
 62
   251
420
  6381921
100
AcDbHatch
 10
0.0
 20
0.0
 30
0.0
210
0.0
220
0.0
230
1.0
  2
SOLID
 70
     1
 71
     0
 91
        1
 92
        1
 93
        1
 72
     4
 94
        3
 73
     0
 74
     1
 95
       17
 96
       13
 40
0.0
 40
0.0
 40
0.0
 40
0.0
 40
1.0
 40
1.0
 40
1.0
 40
2.0
 40
2.0
 40
2.0
 40
3.0
 40
3.0
 40
3.0
 40
4.0
 40
4.0
 40
4.0
 40
4.0
 10
422.9973620521638
 20
1218.42107259544
 10
423.0097798299386
 20
1217.31659592905
 10
422.1243781634933
 20
1216.411227040388
 10
421.019866219325
 20
1216.398456484835
 10
419.9153895529348
 20
1216.386426762616
 10
419.0101970531612
 20
1217.271793151283
 10
418.9979556642753
 20
1218.376305095452
 10
418.9855378865005
 20
1219.48081703962
 10
419.8709395529458
 20
1220.386185928283
 10
420.9752751082253
 20
1220.39856842828
 10
422.0795753857266
 20
1220.410809817166
 10
422.9849795521672
 20
1219.525231761831
 10
422.9973620521638
 20
1218.42107259544
 97
        0
 97
        0
 75
     0
 76
     1
 98
        0
  0
SPLINE
  5
60
330
41
100
AcDbEntity
  8
Layer 0_U+2020Image
370
     0
100
AcDbSpline
210
0.0
220
0.0
230
1.0
 70
    11
 71
     3
 72
    17
 73
    13
 74
     0
 42
0.0000000001
 43
0.0000000001
 12
1.0
 22
0.0
 32
0.0
 13
1.0
 23
0.0
 33
0.0
 40
0.0
 40
0.0
 40
0.0
 40
0.0
 40
1.0
 40
1.0
 40
1.0
 40
2.0
 40
2.0
 40
2.0
 40
3.0
 40
3.0
 40
3.0
 40
4.0
 40
4.0
 40
4.0
 40
4.0
 10
426.9971212178307
 20
1212.600239263562
 30
0.0
 10
427.0095389956055
 20
1211.495762597172
 30
0.0
 10
426.1241373291602
 20
1210.590393708509
 30
0.0
 10
425.0196253849919
 20
1210.577623152957
 30
0.0
 10
423.915148718601
 20
1210.565593430738
 30
0.0
 10
423.0099562188274
 20
1211.450959819405
 30
0.0
 10
422.9977148299416
 20
1212.555471763574
 30
0.0
 10
422.9852970521668
 20
1213.659983707742
 30
0.0
 10
423.8706987186127
 20
1214.565352596404
 30
0.0
 10
424.9750342738922
 20
1214.577735096402
 30
0.0
 10
426.0793345513935
 20
1214.589976485287
 30
0.0
 10
426.9847034400559
 20
1213.704398429953
 30
0.0
 10
426.9971212178307
 20
1212.600239263562
 30
0.0
  0
HATCH
  5
61
330
41
100
AcDbEntity
  8
Layer 0_U+2020Image
 62
   251
420
  6381921
100
AcDbHatch
 10
0.0
 20
0.0
 30
0.0
210
0.0
220
0.0
230
1.0
  2
SOLID
 70
     1
 71
     0
 91
        1
 92
        1
 93
        1
 72
     4
 94
        3
 73
     0
 74
     1
 95
       17
 96
       13
 40
0.0
 40
0.0
 40
0.0
 40
0.0
 40
1.0
 40
1.0
 40
1.0
 40
2.0
 40
2.0
 40
2.0
 40
3.0
 40
3.0
 40
3.0
 40
4.0
 40
4.0
 40
4.0
 40
4.0
 10
426.9971212178307
 20
1212.600239263562
 10
427.0095389956055
 20
1211.495762597172
 10
426.1241373291602
 20
1210.590393708509
 10
425.0196253849919
 20
1210.577623152957
 10
423.915148718601
 20
1210.565593430738
 10
423.0099562188274
 20
1211.450959819405
 10
422.9977148299416
 20
1212.555471763574
 10
422.9852970521668
 20
1213.659983707742
 10
423.8706987186127
 20
1214.565352596404
 10
424.9750342738922
 20
1214.577735096402
 10
426.0793345513935
 20
1214.589976485287
 10
426.9847034400559
 20
1213.704398429953
 10
426.9971212178307
 20
1212.600239263562
 97
        0
 97
        0
 75
     0
 76
     1
 98
        0
  0
SPLINE
  5
62
330
41
100
AcDbEntity
  8
Layer 0_U+2020Image
370
     0
100
AcDbSpline
210
0.0
220
0.0
230
1.0
 70
    11
 71
     3
 72
    17
 73
    13
 74
     0
 42
0.0000000001
 43
0.0000000001
 12
1.0
 22
0.0
 32
0.0
 13
1.0
 23
0.0
 33
0.0
 40
0.0
 40
0.0
 40
0.0
 40
0.0
 40
1.0
 40
1.0
 40
1.0
 40
2.0
 40
2.0
 40
2.0
 40
3.0
 40
3.0
 40
3.0
 40
4.0
 40
4.0
 40
4.0
 40
4.0
 10
422.5873989967109
 20
1233.2498042584
 30
0.0
 10
422.5998167744856
 20
1232.145645092009
 30
0.0
 10
421.7144151080404
 20
1231.240276203347
 30
0.0
 10
420.609903163872
 20
1231.227540925572
 30
0.0
 10
419.5054264974812
 20
1231.215475925575
 30
0.0
 10
418.6002339977076
 20
1232.100877592021
 30
0.0
 10
418.5879926088218
 20
1233.205389536189
 30
0.0
 10
418.575574831047
 20
1234.309866202579
 30
0.0
 10
419.4609764974929
 20
1235.215235091242
 30
0.0
 10
420.5653120527724
 20
1235.227652869017
 30
0.0
 10
421.6696123302737
 20
1235.239858980125
 30
0.0
 10
422.5749812189361
 20
1234.354316202568
 30
0.0
 10
422.5873989967109
 20
1233.2498042584
 30
0.0
  0
HATCH
  5
63
330
41
100
AcDbEntity
  8
Layer 0_U+2020Image
 62
   251
420
  6381921
100
AcDbHatch
 10
0.0
 20
0.0
 30
0.0
210
0.0
220
0.0
230
1.0
  2
SOLID
 70
     1
 71
     0
 91
        1
 92
        1
 93
        1
 72
     4
 94
        3
 73
     0
 74
     1
 95
       17
 96
       13
 40
0.0
 40
0.0
 40
0.0
 40
0.0
 40
1.0
 40
1.0
 40
1.0
 40
2.0
 40
2.0
 40
2.0
 40
3.0
 40
3.0
 40
3.0
 40
4.0
 40
4.0
 40
4.0
 40
4.0
 10
422.5873989967109
 20
1233.2498042584
 10
422.5998167744856
 20
1232.145645092009
 10
421.7144151080404
 20
1231.240276203347
 10
420.609903163872
 20
1231.227540925572
 10
419.5054264974812
 20
1231.215475925575
 10
418.6002339977076
 20
1232.100877592021
 10
418.5879926088218
 20
1233.205389536189
 10
418.575574831047
 20
1234.309866202579
 10
419.4609764974929
 20
1235.215235091242
 10
420.5653120527724
 20
1235.227652869017
 10
421.6696123302737
 20
1235.239858980125
 10
422.5749812189361
 20
1234.354316202568
 10
422.5873989967109
 20
1233.2498042584
 97
        0
 97
        0
 75
     0
 76
     1
 98
        0
  0
SPLINE
  5
64
330
41
100
AcDbEntity
  8
Layer 0_U+2020Image
370
     0
100
AcDbSpline
210
0.0
220
0.0
230
1.0
 70
    11
 71
     3
 72
    17
 73
    13
 74
     0
 42
0.0000000001
 43
0.0000000001
 12
1.0
 22
0.0
 32
0.0
 13
1.0
 23
0.0
 33
0.0
 40
0.0
 40
0.0
 40
0.0
 40
0.0
 40
1.0
 40
1.0
 40
1.0
 40
2.0
 40
2.0
 40
2.0
 40
3.0
 40
3.0
 40
3.0
 40
4.0
 40
4.0
 40
4.0
 40
4.0
 10
421.3728203859034
 20
1225.841470926919
 30
0.0
 10
421.3852381636782
 20
1224.737311760528
 30
0.0
 10
420.4998364972329
 20
1223.831942871866
 30
0.0
 10
419.3953598308421
 20
1223.819207594091
 30
0.0
 10
418.2908478866738
 20
1223.807142594094
 30
0.0
 10
417.3856553869002
 20
1224.69254426054
 30
0.0
 10
417.3734139980143
 20
1225.797056204708
 30
0.0
 10
417.3610314980177
 20
1226.901532871098
 30
0.0
 10
418.2463978866854
 20
1227.806901759761
 30
0.0
 10
419.3507334419649
 20
1227.819319537535
 30
0.0
 10
420.4550689972444
 20
1227.831525648644
 30
0.0
 10
421.3604378859068
 20
1226.945982871087
 30
0.0
 10
421.3728203859034
 20
1225.841470926919
 30
0.0
  0
HATCH
  5
65
330
41
100
AcDbEntity
  8
Layer 0_U+2020Image
 62
   251
420
  6381921
100
AcDbHatch
 10
0.0
 20
0.0
 30
0.0
210
0.0
220
0.0
230
1.0
  2
SOLID
 70
     1
 71
     0
 91
        1
 92
        1
 93
        1
 72
     4
 94
        3
 73
     0
 74
     1
 95
       17
 96
       13
 40
0.0
 40
0.0
 40
0.0
 40
0.0
 40
1.0
 40
1.0
 40
1.0
 40
2.0
 40
2.0
 40
2.0
 40
3.0
 40
3.0
 40
3.0
 40
4.0
 40
4.0
 40
4.0
 40
4.0
 10
421.3728203859034
 20
1225.841470926919
 10
421.3852381636782
 20
1224.737311760528
 10
420.4998364972329
 20
1223.831942871866
 10
419.3953598308421
 20
1223.819207594091
 10
418.2908478866738
 20
1223.807142594094
 10
417.3856553869002
 20
1224.69254426054
 10
417.3734139980143
 20
1225.797056204708
 10
417.3610314980177
 20
1226.901532871098
 10
418.2463978866854
 20
1227.806901759761
 10
419.3507334419649
 20
1227.819319537535
 10
420.4550689972444
 20
1227.831525648644
 10
421.3604378859068
 20
1226.945982871087
 10
421.3728203859034
 20
1225.841470926919
 97
        0
 97
        0
 75
     0
 76
     1
 98
        0
  0
ENDBLK
  5
44
330
41
100
AcDbEntity
  8
0
100
AcDbBlockEnd
  0
BLOCK
  5
49
330
47
100
AcDbEntity
  8
0
100
AcDbBlockBegin
  2
block 3
 70
     0
 10
0.0
 20
0.0
 30
0.0
  3
block 3
  1

  0
SPLINE
  5
4B
330
47
100
AcDbEntity
  8
Layer 0_U+2020Image
 62
     7
420
 16777215
370
    70
100
AcDbSpline
210
0.0
220
0.0
230
1.0
 70
    11
 71
     3
 72
   200
 73
   196
 74
     0
 42
0.0000000001
 43
0.0000000001
 12
1.0
 22
0.0
 32
0.0
 13
1.0
 23
0.0
 33
0.0
 40
0.0
 40
0.0
 40
0.0
 40
0.0
 40
1.0
 40
1.0
 40
1.0
 40
2.0
 40
2.0
 40
2.0
 40
3.0
 40
3.0
 40
3.0
 40
4.0
 40
4.0
 40
4.0
 40
5.0
 40
5.0
 40
5.0
 40
6.0
 40
6.0
 40
6.0
 40
7.0
 40
7.0
 40
7.0
 40
8.0
 40
8.0
 40
8.0
 40
9.0
 40
9.0
 40
9.0
 40
10.0
 40
10.0
 40
10.0
 40
11.0
 40
11.0
 40
11.0
 40
12.0
 40
12.0
 40
12.0
 40
13.0
 40
13.0
 40
13.0
 40
14.0
 40
14.0
 40
14.0
 40
15.0
 40
15.0
 40
15.0
 40
16.0
 40
16.0
 40
16.0
 40
17.0
 40
17.0
 40
17.0
 40
18.0
 40
18.0
 40
18.0
 40
19.0
 40
19.0
 40
19.0
 40
20.0
 40
20.0
 40
20.0
 40
21.0
 40
21.0
 40
21.0
 40
22.0
 40
22.0
 40
22.0
 40
23.0
 40
23.0
 40
23.0
 40
24.0
 40
24.0
 40
24.0
 40
25.0
 40
25.0
 40
25.0
 40
26.0
 40
26.0
 40
26.0
 40
27.0
 40
27.0
 40
27.0
 40
28.0
 40
28.0
 40
28.0
 40
29.0
 40
29.0
 40
29.0
 40
30.0
 40
30.0
 40
30.0
 40
31.0
 40
31.0
 40
31.0
 40
32.0
 40
32.0
 40
32.0
 40
33.0
 40
33.0
 40
33.0
 40
34.0
 40
34.0
 40
34.0
 40
35.0
 40
35.0
 40
35.0
 40
36.0
 40
36.0
 40
36.0
 40
37.0
 40
37.0
 40
37.0
 40
38.0
 40
38.0
 40
38.0
 40
39.0
 40
39.0
 40
39.0
 40
40.0
 40
40.0
 40
40.0
 40
41.0
 40
41.0
 40
41.0
 40
42.0
 40
42.0
 40
42.0
 40
43.0
 40
43.0
 40
43.0
 40
44.0
 40
44.0
 40
44.0
 40
45.0
 40
45.0
 40
45.0
 40
46.0
 40
46.0
 40
46.0
 40
47.0
 40
47.0
 40
47.0
 40
48.0
 40
48.0
 40
48.0
 40
49.0
 40
49.0
 40
49.0
 40
50.0
 40
50.0
 40
50.0
 40
51.0
 40
51.0
 40
51.0
 40
52.0
 40
52.0
 40
52.0
 40
53.0
 40
53.0
 40
53.0
 40
54.0
 40
54.0
 40
54.0
 40
55.0
 40
55.0
 40
55.0
 40
56.0
 40
56.0
 40
56.0
 40
57.0
 40
57.0
 40
57.0
 40
58.0
 40
58.0
 40
58.0
 40
59.0
 40
59.0
 40
59.0
 40
60.0
 40
60.0
 40
60.0
 40
61.0
 40
61.0
 40
61.0
 40
62.0
 40
62.0
 40
62.0
 40
63.0
 40
63.0
 40
63.0
 40
64.0
 40
64.0
 40
64.0
 40
65.0
 40
65.0
 40
65.0
 40
65.0
 10
422.9401767744005
 20
1198.004764267211
 30
0.0
 10
421.4408712192197
 20
1208.852680931166
 30
0.0
 10
411.6283926105619
 20
1210.420707597441
 30
0.0
 10
408.2534028891836
 20
1211.333167319435
 30
0.0
 10
401.3132409464743
 20
1213.210050930077
 30
0.0
 10
395.1256951146876
 20
1216.622047040335
 30
0.0
 10
389.6119901160661
 20
1221.251937872511
 30
0.0
 10
388.3970587274808
 20
1222.272347594478
 30
0.0
 10
387.6069423387895
 20
1223.354458149763
 30
0.0
 10
387.639644838781
 20
1225.090618704884
 30
0.0
 10
387.6772156721049
 20
1227.088610926607
 30
0.0
 10
386.889674561191
 20
1227.838616481975
 30
0.0
 10
384.8260656728182
 20
1228.233410092987
 30
0.0
 10
381.3761459514584
 20
1228.893492592822
 30
0.0
 10
377.9064001189922
 20
1229.45264537046
 30
0.0
 10
374.4623365087423
 20
1230.140632592511
 30
0.0
 10
372.6905453980742
 20
1230.494786203533
 30
0.0
 10
370.942319842956
 20
1230.98913370341
 30
0.0
 10
369.2094401211664
 20
1231.507646481058
 30
0.0
 10
367.9702376214765
 20
1231.878662869854
 30
0.0
 10
367.6188356771198
 20
1232.551163147464
 30
0.0
 10
367.8141687326266
 20
1233.84892675825
 30
0.0
 10
367.8859942881639
 20
1234.32725814702
 30
0.0
 10
368.0167337325757
 20
1234.798040091346
 30
0.0
 10
368.1400648436564
 20
1235.267269813451
 30
0.0
 10
369.8705456765567
 20
1241.835004256254
 30
0.0
 10
371.604130953901
 20
1248.402033143501
 30
0.0
 10
373.3385628979123
 20
1254.968744530748
 30
0.0
 10
373.4004048423409
 20
1255.203341752912
 30
0.0
 10
373.4808381756545
 20
1255.432788419521
 30
0.0
 10
373.5485362311931
 20
1255.666009808351
 30
0.0
 10
374.2253051199129
 20
1257.995577863325
 30
0.0
 10
375.0540506752608
 20
1258.613644529837
 30
0.0
 10
377.5002117857608
 20
1258.366982307676
 30
0.0
 10
379.7979240074084
 20
1258.134783974401
 30
0.0
 10
382.0253628957405
 20
1257.610097585643
 30
0.0
 10
384.0795173396714
 20
1256.464416474819
 30
0.0
 10
385.6670173392745
 20
1255.578520919484
 30
0.0
 10
387.2710273388735
 20
1254.705854530814
 30
0.0
 10
388.9286595606814
 20
1253.963786475444
 30
0.0
 10
393.2417206707138
 20
1252.031798975927
 30
0.0
 10
396.8656303920304
 20
1249.110693143324
 30
0.0
 10
400.5077787244529
 20
1246.182355366278
 30
0.0
 10
403.7833909458562
 20
1243.548234255825
 30
0.0
 10
407.4356992782768
 20
1241.462576756347
 30
0.0
 10
411.3210878884165
 20
1239.907108978958
 30
0.0
 10
413.1364823324073
 20
1239.180210368029
 30
0.0
 10
415.214731498554
 20
1238.888039812546
 30
0.0
 10
417.1880645536166
 20
1238.822952312562
 30
0.0
 10
421.3618137192397
 20
1238.684804534819
 30
0.0
 10
425.5450173293047
 20
1238.827079812561
 30
0.0
 10
429.7239170504828
 20
1238.851209812555
 30
0.0
 10
435.1812834380072
 20
1238.882536479214
 30
0.0
 10
440.639531769976
 20
1238.851880090333
 30
0.0
 10
446.0949931575009
 20
1238.957995645862
 30
0.0
 10
450.8187581563199
 20
1239.049294534728
 30
0.0
 10
455.5395598218061
 20
1239.285267590225
 30
0.0
 10
460.2608906539596
 20
1239.474744534622
 30
0.0
 10
463.8303667641779
 20
1239.617725367919
 30
0.0
 10
467.4012187077299
 20
1239.741056479
 30
0.0
 10
470.9661792623943
 20
1239.95879092339
 30
0.0
 10
474.825391761429
 20
1240.194446478886
 30
0.0
 10
478.6776898160218
 20
1240.540309812133
 30
0.0
 10
482.5348209261687
 20
1240.814030089842
 30
0.0
 10
483.8057028702951
 20
1240.904482312042
 30
0.0
 10
485.0815942588652
 20
1240.930305645369
 30
0.0
 10
486.3554395363244
 20
1240.969428700914
 30
0.0
 10
498.2482487000179
 20
1241.335435645268
 30
0.0
 10
510.1386589748234
 20
1241.859451756248
 30
0.0
 10
522.033867027405
 20
1242.019648145097
 30
0.0
 10
536.4781061904604
 20
1242.214628422826
 30
0.0
 10
550.926684520182
 20
1242.13091425618
 30
0.0
 10
565.3731814610146
 20
1242.110947033963
 30
0.0
 10
573.5680328478546
 20
1242.099587589521
 30
0.0
 10
581.7627078458064
 20
1241.958335367334
 30
0.0
 10
589.9577003437571
 20
1241.903901756237
 30
0.0
 10
606.8333545062053
 20
1241.791224534042
 30
0.0
 10
623.7099964464304
 20
1241.759545089606
 30
0.0
 10
640.5845922755453
 20
1241.561813145211
 30
0.0
 10
646.3449594963271
 20
1241.494256200783
 30
0.0
 10
652.1017283837768
 20
1241.048133423117
 30
0.0
 10
657.8584972712265
 20
1240.742204534305
 30
0.0
 10
664.4641200473527
 20
1240.391155367726
 30
0.0
 10
671.0666383790355
 20
1239.975830090052
 30
0.0
 10
677.6732842107174
 20
1239.64079703458
 30
0.0
 10
683.784876986967
 20
1239.330740645769
 30
0.0
 10
689.9008089298829
 20
1239.108208423602
 30
0.0
 10
696.0127544839103
 20
1238.810534534788
 30
0.0
 10
699.0907758720294
 20
1238.660674534825
 30
0.0
 10
702.1634350379279
 20
1238.39369231267
 30
0.0
 10
705.2416328149361
 20
1238.249335646039
 30
0.0
 10
706.8765108700834
 20
1238.172500646058
 30
0.0
 10
708.521019758561
 20
1238.30514509047
 30
0.0
 10
710.1564269803744
 20
1238.235894812709
 30
0.0
 10
713.5985855906247
 20
1238.090515090523
 30
0.0
 10
717.0366167008764
 20
1237.852107868361
 30
0.0
 10
720.4784225333495
 20
1237.692969812845
 30
0.0
 10
723.4439783659411
 20
1237.556197868435
 30
0.0
 10
726.4112275318664
 20
1237.432831479577
 30
0.0
 10
729.3790058644577
 20
1237.382207868478
 30
0.0
 10
732.5901655858768
 20
1237.327068701825
 30
0.0
 10
735.8041122517404
 20
1237.413217035137
 30
0.0
 10
739.014778084271
 20
1237.346718424043
 30
0.0
 10
742.5900750278212
 20
1237.272987868505
 30
0.0
 10
746.1654072491501
 20
1236.961555646361
 30
0.0
 10
749.7366119704792
 20
1237.017188701903
 30
0.0
 10
751.8313711366225
 20
1237.049926479672
 30
0.0
 10
753.9246133583215
 20
1237.559619812878
 30
0.0
 10
756.0057905800228
 20
1237.926861479453
 30
0.0
 10
757.0699800242015
 20
1238.114645090517
 30
0.0
 10
758.107675857275
 20
1238.454334812654
 30
0.0
 10
759.1542969681245
 20
1238.737509534806
 30
0.0
 10
762.4946439117338
 20
1239.639421201247
 30
0.0
 10
764.8590311333654
 20
1242.032383422871
 30
0.0
 10
767.476606966044
 20
1244.078423977915
 30
0.0
 10
769.4726941877677
 20
1245.638724810859
 30
0.0
 10
771.5983214094581
 20
1247.079469254943
 30
0.0
 10
773.8200452977917
 20
1248.292813143528
 30
0.0
 10
777.3247514080267
 20
1250.206914809716
 30
0.0
 10
780.9159233515736
 20
1251.981845642606
 30
0.0
 10
784.5553200173304
 20
1253.626178142195
 30
0.0
 10
786.4763008501832
 20
1254.493305919756
 30
0.0
 10
788.5598769607733
 20
1255.021767030735
 30
0.0
 10
790.602142793596
 20
1255.589174808371
 30
0.0
 10
792.6795452930764
 20
1256.165895919338
 30
0.0
 10
793.6228025150631
 20
1255.514421197278
 30
0.0
 10
794.0327655705166
 20
1253.339546197822
 30
0.0
 10
794.4255130704181
 20
1251.253183142788
 30
0.0
 10
794.7724347369978
 20
1249.158565087756
 30
0.0
 10
795.1234839035767
 20
1247.065005366057
 30
0.0
 10
795.9861314033615
 20
1241.920094256232
 30
0.0
 10
796.8398183475921
 20
1236.774160090852
 30
0.0
 10
797.6969625140447
 20
1231.628543425472
 30
0.0
 10
798.1069255694975
 20
1229.167883148309
 30
0.0
 10
797.5763830696303
 20
1228.529002592914
 30
0.0
 10
795.0973077924724
 20
1228.105245926353
 30
0.0
 10
790.7468522380044
 20
1227.361449259872
 30
0.0
 10
786.4136122390877
 20
1226.522578982304
 30
0.0
 10
782.0686600179519
 20
1225.746044538054
 30
0.0
 10
780.5476233516652
 20
1225.474405649233
 30
0.0
 10
779.7907386296325
 20
1224.70803120498
 30
0.0
 10
779.6701591852182
 20
1223.0736823165
 30
0.0
 10
779.5509555741368
 20
1221.472423983567
 30
0.0
 10
778.683510296576
 20
1220.157409539451
 30
0.0
 10
777.4463539079962
 20
1219.051557039727
 30
0.0
 10
774.3337250198853
 20
1216.269269262645
 30
0.0
 10
770.6681169652461
 20
1214.395490096447
 30
0.0
 10
766.9570711328411
 20
1212.629202319111
 30
0.0
 10
761.267153634263
 20
1209.920997875343
 30
0.0
 10
755.2222358579969
 20
1208.478560097926
 30
0.0
 10
748.9497411373427
 20
1207.920077598066
 30
0.0
 10
746.9155891934065
 20
1207.738890931445
 30
0.0
 10
745.0867539160864
 20
1207.041237598286
 30
0.0
 10
743.684426971992
 20
1205.40586565425
 30
0.0
 10
740.8811489171375
 20
1201.973514266219
 30
0.0
 10
745.7211541937052
 20
1195.799903156651
 30
0.0
 10
736.0692247516736
 20
1194.476986490316
 30
0.0
 10
726.4172600318645
 20
1193.154069823979
 30
0.0
 10
718.7126639226797
 20
1194.95792843464
 30
0.0
 10
718.1269822561593
 20
1195.094347601272
 30
0.0
 10
710.0130933692989
 20
1196.593653156453
 30
0.0
 10
713.8550550350053
 20
1198.583531489289
 30
0.0
 10
711.7135880910964
 20
1203.585814543594
 30
0.0
 10
709.572121147187
 20
1208.588097597899
 30
0.0
 10
706.27206142579
 20
1209.875877597577
 30
0.0
 10
704.1297478152142
 20
1210.42261259744
 30
0.0
 10
701.9873989268609
 20
1210.969347597304
 30
0.0
 10
690.8001453185465
 20
1211.471315097178
 30
0.0
 10
685.829400597567
 20
1211.595316486036
 30
0.0
 10
669.5146278238684
 20
1212.002527874823
 30
0.0
 10
653.1983028279475
 20
1212.36909926362
 30
0.0
 10
636.8814839431374
 20
1212.691220652429
 30
0.0
 10
626.5639333901611
 20
1212.895161485711
 30
0.0
 10
616.2443014482969
 20
1213.092223152328
 30
0.0
 10
605.9253750619878
 20
1213.119775096766
 30
0.0
 10
572.5985642369862
 20
1213.20761676341
 30
0.0
 10
539.2710478564293
 20
1213.297892596721
 30
0.0
 10
505.9442370314271
 20
1213.214178430076
 30
0.0
 10
492.8342739791491
 20
1213.181087874528
 30
0.0
 10
479.7241345379824
 20
1212.734435930195
 30
0.0
 10
466.6165703745925
 20
1212.374602596952
 30
0.0
 10
463.6036717642349
 20
1212.291558708084
 30
0.0
 10
460.5797312094354
 20
1211.840285374864
 30
0.0
 10
458.0794539878381
 20
1209.859685097581
 30
0.0
 10
454.8925653775238
 20
1207.335101487101
 30
0.0
 10
452.9938095446647
 20
1204.088099543468
 30
0.0
 10
452.714056766957
 20
1199.986034822272
 30
0.0
 10
452.6696420447462
 20
1199.333713433546
 30
0.0
 10
452.8683970446962
 20
1198.668127600379
 30
0.0
 10
452.8649751002524
 20
1198.009244544988
 30
0.0
 10
452.8429264891468
 20
1193.885448712686
 30
0.0
 10
452.7498989891703
 20
1192.360319824178
 30
0.0
 10
439.1679545481213
 20
1191.742958713221
 30
0.0
 10
425.5860101070724
 20
1191.125597602264
 30
0.0
 10
425.664397329275
 20
1191.86868871319
 30
0.0
 10
422.9401767744005
 20
1198.004764267211
 30
0.0
  0
ENDBLK
  5
4A
330
47
100
AcDbEntity
  8
0
100
AcDbBlockEnd
  0
ENDSEC
  0
SECTION
  2
ENTITIES
  0
INSERT
  5
42
330
1F
100
AcDbEntity
  8
Layer 0_U+2020Image
100
AcDbBlockReference
  2
block 2
 10
0.0
 20
0.0
 30
0.0
  0
ENDSEC
  0
SECTION
  2
OBJECTS
  0
DICTIONARY
  5
C
330
0
100
AcDbDictionary
281
     1
  3
ACAD_GROUP
350
D
  3
ACAD_LAYOUT
350
1A
  3
ACAD_MATERIAL
350
3B
  3
ACAD_MLEADERSTYLE
350
67
  3
ACAD_MLINESTYLE
350
17
  3
ACAD_PLOTSETTINGS
350
19
  3
ACAD_PLOTSTYLENAME
350
E
  3
ACAD_TABLESTYLE
350
66
  3
ACAD_VISUALSTYLE
350
2A
  0
SUN
  5
3F
330
29
100
AcDbSun
 90
        1
290
     0
 63
     7
421
 16777215
 40
1.0
291
     1
 91
  2455826
 92
 54000000
292
     0
 70
     2
 71
   256
280
     1
  0
DICTIONARY
  5
D
102
{ACAD_REACTORS
330
C
102
}
330
C
100
AcDbDictionary
281
     1
  0
DICTIONARY
  5
1A
102
{ACAD_REACTORS
330
C
102
}
330
C
100
AcDbDictionary
281
     1
  3
Layout1
350
1E
  3
Layout2
350
26
  3
Model
350
22
  0
DICTIONARY
  5
3B
102
{ACAD_REACTORS
330
C
102
}
330
C
100
AcDbDictionary
281
     1
  3
ByBlock
350
3D
  3
ByLayer
350
3C
  3
Global
350
3E
  0
DICTIONARY
  5
67
102
{ACAD_REACTORS
330
C
102
}
330
C
100
AcDbDictionary
281
     1
  0
DICTIONARY
  5
17
102
{ACAD_REACTORS
330
C
102
}
330
C
100
AcDbDictionary
281
     1
  3
Standard
350
18
  0
DICTIONARY
  5
19
102
{ACAD_REACTORS
330
C
102
}
330
C
100
AcDbDictionary
281
     1
  0
ACDBDICTIONARYWDFLT
  5
E
102
{ACAD_REACTORS
330
C
102
}
330
C
100
AcDbDictionary
281
     1
  3
Normal
350
F
100
AcDbDictionaryWithDefault
340
F
  0
DICTIONARY
  5
66
102
{ACAD_REACTORS
330
C
102
}
330
C
100
AcDbDictionary
281
     1
  0
DICTIONARY
  5
2A
102
{ACAD_REACTORS
330
C
102
}
330
C
100
AcDbDictionary
281
     1
  3
2dWireframe
350
2F
  3
3D Hidden
350
31
  3
3dWireframe
350
30
  3
Basic
350
32
  3
Brighten
350
36
  3
ColorChange
350
3A
  3
Conceptual
350
34
  3
Dim
350
35
  3
Facepattern
350
39
  3
Flat
350
2B
  3
FlatWithEdges
350
2C
  3
Gouraud
350
2D
  3
GouraudWithEdges
350
2E
  3
Linepattern
350
38
  3
Realistic
350
33
  3
Thicken
350
37
  0
LAYOUT
  5
1E
102
{ACAD_REACTORS
330
1A
102
}
330
1A
100
AcDbPlotSettings
  1

  2
none_device
  4

  6

 40
0.0
 41
0.0
 42
0.0
 43
0.0
 44
0.0
 45
0.0
 46
0.0
 47
0.0
 48
0.0
 49
0.0
140
0.0
141
0.0
142
1.0
143
1.0
 70
   688
 72
     0
 73
     0
 74
     5
  7

 75
    16
 76
     0
 77
     2
 78
   300
147
1.0
148
0.0
149
0.0
100
AcDbLayout
  1
Layout1
 70
     1
 71
     1
 10
0.0
 20
0.0
 11
12.0
 21
9.0
 12
0.0
 22
0.0
 32
0.0
 14
1.000000000000000E+20
 24
1.000000000000000E+20
 34
1.000000000000000E+20
 15
-1.000000000000000E+20
 25
-1.000000000000000E+20
 35
-1.000000000000000E+20
146
0.0
 13
0.0
 23
0.0
 33
0.0
 16
1.0
 26
0.0
 36
0.0
 17
0.0
 27
1.0
 37
0.0
 76
     0
330
1B
  0
LAYOUT
  5
26
102
{ACAD_REACTORS
330
1A
102
}
330
1A
100
AcDbPlotSettings
  1

  2
none_device
  4

  6

 40
0.0
 41
0.0
 42
0.0
 43
0.0
 44
0.0
 45
0.0
 46
0.0
 47
0.0
 48
0.0
 49
0.0
140
0.0
141
0.0
142
1.0
143
1.0
 70
   688
 72
     0
 73
     0
 74
     5
  7

 75
    16
 76
     0
 77
     2
 78
   300
147
1.0
148
0.0
149
0.0
100
AcDbLayout
  1
Layout2
 70
     1
 71
     2
 10
0.0
 20
0.0
 11
0.0
 21
0.0
 12
0.0
 22
0.0
 32
0.0
 14
0.0
 24
0.0
 34
0.0
 15
0.0
 25
0.0
 35
0.0
146
0.0
 13
0.0
 23
0.0
 33
0.0
 16
1.0
 26
0.0
 36
0.0
 17
0.0
 27
1.0
 37
0.0
 76
     0
330
23
  0
LAYOUT
  5
22
102
{ACAD_REACTORS
330
1A
102
}
330
1A
100
AcDbPlotSettings
  1

  2
none_device
  4

  6

 40
0.0
 41
0.0
 42
0.0
 43
0.0
 44
0.0
 45
0.0
 46
0.0
 47
0.0
 48
0.0
 49
0.0
140
0.0
141
0.0
142
1.0
143
1.0
 70
  1712
 72
     0
 73
     0
 74
     0
  7

 75
     0
 76
     0
 77
     2
 78
   300
147
1.0
148
0.0
149
0.0
100
AcDbLayout
  1
Model
 70
     1
 71
     0
 10
0.0
 20
0.0
 11
12.0
 21
9.0
 12
0.0
 22
0.0
 32
0.0
 14
1.000000000000000E+20
 24
1.000000000000000E+20
 34
1.000000000000000E+20
 15
-1.000000000000000E+20
 25
-1.000000000000000E+20
 35
-1.000000000000000E+20
146
0.0
 13
0.0
 23
0.0
 33
0.0
 16
1.0
 26
0.0
 36
0.0
 17
0.0
 27
1.0
 37
0.0
 76
     0
330
1F
331
29
  0
MATERIAL
  5
3D
102
{ACAD_REACTORS
330
3B
102
}
330
3B
100
AcDbMaterial
  1
ByBlock
 72
     1
 94
      127
  0
MATERIAL
  5
3C
102
{ACAD_REACTORS
330
3B
102
}
330
3B
100
AcDbMaterial
  1
ByLayer
 72
     1
 94
      127
  0
MATERIAL
  5
3E
102
{ACAD_REACTORS
330
3B
102
}
330
3B
100
AcDbMaterial
  1
Global
 72
     1
 94
      127
  0
MLINESTYLE
  5
18
102
{ACAD_REACTORS
330
17
102
}
330
17
100
AcDbMlineStyle
  2
Standard
 70
     0
  3

 62
   256
 51
90.0
 52
90.0
 71
     2
 49
0.5
 62
   256
  6
BYLAYER
 49
-0.5
 62
   256
  6
BYLAYER
  0
ACDBPLACEHOLDER
  5
F
102
{ACAD_REACTORS
330
E
102
}
330
E
  0
VISUALSTYLE
  5
2F
102
{ACAD_REACTORS
330
2A
102
}
330
2A
100
AcDbVisualStyle
  2
2dWireframe
 70
     4
177
     2
291
     0
 71
     0
176
     1
 72
     2
176
     1
 73
     0
176
     1
 90
        0
176
     1
 40
-0.6
176
     1
 41
-30.0
176
     1
 62
     5
 63
     7
421
 16777215
176
     1
 74
     1
176
     1
 91
        4
176
     1
 64
     7
176
     1
 65
   257
176
     1
 75
     1
176
     1
175
     1
176
     1
 42
1.0
176
     1
 92
        0
176
     1
 66
   257
176
     1
 43
1.0
176
     1
 76
     1
176
     1
 77
     6
176
     1
 78
     2
176
     1
 67
     7
176
     1
 79
     5
176
     1
170
     0
176
     1
171
     0
176
     1
290
     0
176
     1
 93
        1
176
     1
 44
0.0
176
     1
173
     0
176
     1
  0
VISUALSTYLE
  5
31
102
{ACAD_REACTORS
330
2A
102
}
330
2A
100
AcDbVisualStyle
  2
3D Hidden
 70
     6
177
     2
291
     0
 71
     1
176
     1
 72
     2
176
     1
 73
     2
176
     1
 90
        0
176
     1
 40
-0.6
176
     1
 41
-30.0
176
     1
 62
     5
 63
     7
421
 16777215
176
     1
 74
     2
176
     1
 91
        2
176
     1
 64
     7
176
     1
 65
   257
176
     1
 75
     2
176
     1
175
     1
176
     1
 42
40.0
176
     1
 92
        0
176
     1
 66
   257
176
     1
 43
1.0
176
     1
 76
     1
176
     1
 77
     6
176
     1
 78
     2
176
     1
 67
     7
176
     1
 79
     3
176
     1
170
     0
176
     1
171
     0
176
     1
290
     0
176
     1
 93
        1
176
     1
 44
0.0
176
     1
173
     0
176
     1
  0
VISUALSTYLE
  5
30
102
{ACAD_REACTORS
330
2A
102
}
330
2A
100
AcDbVisualStyle
  2
3dWireframe
 70
     5
177
     2
291
     0
 71
     0
176
     1
 72
     2
176
     1
 73
     0
176
     1
 90
        0
176
     1
 40
-0.6
176
     1
 41
-30.0
176
     1
 62
     5
 63
     7
421
 16777215
176
     1
 74
     1
176
     1
 91
        4
176
     1
 64
     7
176
     1
 65
   257
176
     1
 75
     1
176
     1
175
     1
176
     1
 42
1.0
176
     1
 92
        0
176
     1
 66
   257
176
     1
 43
1.0
176
     1
 76
     1
176
     1
 77
     6
176
     1
 78
     2
176
     1
 67
     7
176
     1
 79
     5
176
     1
170
     0
176
     1
171
     0
176
     1
290
     0
176
     1
 93
        1
176
     1
 44
0.0
176
     1
173
     0
176
     1
  0
VISUALSTYLE
  5
32
102
{ACAD_REACTORS
330
2A
102
}
330
2A
100
AcDbVisualStyle
  2
Basic
 70
     7
177
     2
291
     1
 71
     1
176
     1
 72
     0
176
     1
 73
     1
176
     1
 90
        0
176
     1
 40
-0.6
176
     1
 41
-30.0
176
     1
 62
     5
 63
     7
421
 16777215
176
     1
 74
     0
176
     1
 91
        4
176
     1
 64
     7
176
     1
 65
   257
176
     1
 75
     1
176
     1
175
     1
176
     1
 42
1.0
176
     1
 92
        8
176
     1
 66
     7
176
     1
 43
1.0
176
     1
 76
     1
176
     1
 77
     6
176
     1
 78
     2
176
     1
 67
     7
176
     1
 79
     5
176
     1
170
     0
176
     1
171
     0
176
     1
290
     0
176
     1
 93
        1
176
     1
 44
0.0
176
     1
173
     0
176
     1
  0
VISUALSTYLE
  5
36
102
{ACAD_REACTORS
330
2A
102
}
330
2A
100
AcDbVisualStyle
  2
Brighten
 70
    12
177
     2
291
     1
 71
     2
176
     1
 72
     2
176
     1
 73
     0
176
     1
 90
        0
176
     1
 40
-0.6
176
     1
 41
-30.0
176
     1
 62
     5
 63
     7
421
 16777215
176
     1
 74
     1
176
     1
 91
        4
176
     1
 64
     7
176
     1
 65
   257
176
     1
 75
     1
176
     1
175
     1
176
     1
 42
1.0
176
     1
 92
        8
176
     1
 66
     7
176
     1
 43
1.0
176
     1
 76
     1
176
     1
 77
     6
176
     1
 78
     2
176
     1
 67
     7
176
     1
 79
     5
176
     1
170
     0
176
     1
171
     0
176
     1
290
     0
176
     1
 93
        1
176
     1
 44
50.0
176
     1
173
     0
176
     1
  0
VISUALSTYLE
  5
3A
102
{ACAD_REACTORS
330
2A
102
}
330
2A
100
AcDbVisualStyle
  2
ColorChange
 70
    16
177
     2
291
     1
 71
     2
176
     1
 72
     2
176
     1
 73
     3
176
     1
 90
        0
176
     1
 40
-0.6
176
     1
 41
-30.0
176
     1
 62
     5
 63
     8
421
  8421504
176
     1
 74
     1
176
     1
 91
        4
176
     1
 64
     7
176
     1
 65
   257
176
     1
 75
     1
176
     1
175
     1
176
     1
 42
1.0
176
     1
 92
        8
176
     1
 66
     8
424
  8421504
176
     1
 43
1.0
176
     1
 76
     1
176
     1
 77
     6
176
     1
 78
     2
176
     1
 67
     7
176
     1
 79
     5
176
     1
170
     0
176
     1
171
     0
176
     1
290
     0
176
     1
 93
        1
176
     1
 44
0.0
176
     1
173
     0
176
     1
  0
VISUALSTYLE
  5
34
102
{ACAD_REACTORS
330
2A
102
}
330
2A
100
AcDbVisualStyle
  2
Conceptual
 70
     9
177
     2
291
     0
 71
     3
176
     1
 72
     2
176
     1
 73
     0
176
     1
 90
        0
176
     1
 40
-0.6
176
     1
 41
-30.0
176
     1
 62
     5
 63
     7
421
 16777215
176
     1
 74
     2
176
     1
 91
        2
176
     1
 64
     7
176
     1
 65
   257
176
     1
 75
     1
176
     1
175
     1
176
     1
 42
40.0
176
     1
 92
        8
176
     1
 66
     7
176
     1
 43
1.0
176
     1
 76
     1
176
     1
 77
     6
176
     1
 78
     2
176
     1
 67
     7
176
     1
 79
     3
176
     1
170
     0
176
     1
171
     0
176
     1
290
     0
176
     1
 93
        1
176
     1
 44
0.0
176
     1
173
     0
176
     1
  0
VISUALSTYLE
  5
35
102
{ACAD_REACTORS
330
2A
102
}
330
2A
100
AcDbVisualStyle
  2
Dim
 70
    11
177
     2
291
     1
 71
     2
176
     1
 72
     2
176
     1
 73
     0
176
     1
 90
        0
176
     1
 40
-0.6
176
     1
 41
-30.0
176
     1
 62
     5
 63
     7
421
 16777215
176
     1
 74
     1
176
     1
 91
        4
176
     1
 64
     7
176
     1
 65
   257
176
     1
 75
     1
176
     1
175
     1
176
     1
 42
1.0
176
     1
 92
        8
176
     1
 66
     7
176
     1
 43
1.0
176
     1
 76
     1
176
     1
 77
     6
176
     1
 78
     2
176
     1
 67
     7
176
     1
 79
     5
176
     1
170
     0
176
     1
171
     0
176
     1
290
     0
176
     1
 93
        1
176
     1
 44
-50.0
176
     1
173
     0
176
     1
  0
VISUALSTYLE
  5
39
102
{ACAD_REACTORS
330
2A
102
}
330
2A
100
AcDbVisualStyle
  2
Facepattern
 70
    15
177
     2
291
     1
 71
     2
176
     1
 72
     2
176
     1
 73
     0
176
     1
 90
        0
176
     1
 40
-0.6
176
     1
 41
-30.0
176
     1
 62
     5
 63
     7
421
 16777215
176
     1
 74
     1
176
     1
 91
        4
176
     1
 64
     7
176
     1
 65
   257
176
     1
 75
     1
176
     1
175
     1
176
     1
 42
1.0
176
     1
 92
        8
176
     1
 66
     7
176
     1
 43
1.0
176
     1
 76
     1
176
     1
 77
     6
176
     1
 78
     2
176
     1
 67
     7
176
     1
 79
     5
176
     1
170
     0
176
     1
171
     0
176
     1
290
     0
176
     1
 93
        1
176
     1
 44
0.0
176
     1
173
     0
176
     1
  0
VISUALSTYLE
  5
2B
102
{ACAD_REACTORS
330
2A
102
}
330
2A
100
AcDbVisualStyle
  2
Flat
 70
     0
177
     2
291
     1
 71
     2
176
     1
 72
     1
176
     1
 73
     1
176
     1
 90
        2
176
     1
 40
-0.6
176
     1
 41
30.0
176
     1
 62
     5
 63
     7
421
 16777215
176
     1
 74
     0
176
     1
 91
        4
176
     1
 64
     7
176
     1
 65
   257
176
     1
 75
     1
176
     1
175
     1
176
     1
 42
1.0
176
     1
 92
        8
176
     1
 66
     7
176
     1
 43
1.0
176
     1
 76
     1
176
     1
 77
     6
176
     1
 78
     2
176
     1
 67
     7
176
     1
 79
     5
176
     1
170
     0
176
     1
171
     0
176
     1
290
     0
176
     1
 93
       13
176
     1
 44
0.0
176
     1
173
     0
176
     1
  0
VISUALSTYLE
  5
2C
102
{ACAD_REACTORS
330
2A
102
}
330
2A
100
AcDbVisualStyle
  2
FlatWithEdges
 70
     1
177
     2
291
     1
 71
     2
176
     1
 72
     1
176
     1
 73
     1
176
     1
 90
        2
176
     1
 40
-0.6
176
     1
 41
30.0
176
     1
 62
     5
 63
     7
421
 16777215
176
     1
 74
     1
176
     1
 91
        4
176
     1
 64
     7
176
     1
 65
   257
176
     1
 75
     1
176
     1
175
     1
176
     1
 42
1.0
176
     1
 92
        0
176
     1
 66
   257
176
     1
 43
1.0
176
     1
 76
     1
176
     1
 77
     6
176
     1
 78
     2
176
     1
 67
     7
176
     1
 79
     5
176
     1
170
     0
176
     1
171
     0
176
     1
290
     0
176
     1
 93
       13
176
     1
 44
0.0
176
     1
173
     0
176
     1
  0
VISUALSTYLE
  5
2D
102
{ACAD_REACTORS
330
2A
102
}
330
2A
100
AcDbVisualStyle
  2
Gouraud
 70
     2
177
     2
291
     1
 71
     2
176
     1
 72
     2
176
     1
 73
     1
176
     1
 90
        2
176
     1
 40
-0.6
176
     1
 41
30.0
176
     1
 62
     5
 63
     7
421
 16777215
176
     1
 74
     0
176
     1
 91
        4
176
     1
 64
     7
176
     1
 65
   257
176
     1
 75
     1
176
     1
175
     1
176
     1
 42
1.0
176
     1
 92
        0
176
     1
 66
     7
176
     1
 43
1.0
176
     1
 76
     1
176
     1
 77
     6
176
     1
 78
     2
176
     1
 67
     7
176
     1
 79
     5
176
     1
170
     0
176
     1
171
     0
176
     1
290
     0
176
     1
 93
       13
176
     1
 44
0.0
176
     1
173
     0
176
     1
  0
VISUALSTYLE
  5
2E
102
{ACAD_REACTORS
330
2A
102
}
330
2A
100
AcDbVisualStyle
  2
GouraudWithEdges
 70
     3
177
     2
291
     1
 71
     2
176
     1
 72
     2
176
     1
 73
     1
176
     1
 90
        2
176
     1
 40
-0.6
176
     1
 41
30.0
176
     1
 62
     5
 63
     7
421
 16777215
176
     1
 74
     1
176
     1
 91
        4
176
     1
 64
     7
176
     1
 65
   257
176
     1
 75
     1
176
     1
175
     1
176
     1
 42
1.0
176
     1
 92
        0
176
     1
 66
   257
176
     1
 43
1.0
176
     1
 76
     1
176
     1
 77
     6
176
     1
 78
     2
176
     1
 67
     7
176
     1
 79
     5
176
     1
170
     0
176
     1
171
     0
176
     1
290
     0
176
     1
 93
       13
176
     1
 44
0.0
176
     1
173
     0
176
     1
  0
VISUALSTYLE
  5
38
102
{ACAD_REACTORS
330
2A
102
}
330
2A
100
AcDbVisualStyle
  2
Linepattern
 70
    14
177
     2
291
     1
 71
     2
176
     1
 72
     2
176
     1
 73
     0
176
     1
 90
        0
176
     1
 40
-0.6
176
     1
 41
-30.0
176
     1
 62
     5
 63
     7
421
 16777215
176
     1
 74
     1
176
     1
 91
        4
176
     1
 64
     7
176
     1
 65
   257
176
     1
 75
     7
176
     1
175
     7
176
     1
 42
1.0
176
     1
 92
        8
176
     1
 66
     7
176
     1
 43
1.0
176
     1
 76
     1
176
     1
 77
     6
176
     1
 78
     2
176
     1
 67
     7
176
     1
 79
     5
176
     1
170
     0
176
     1
171
     0
176
     1
290
     0
176
     1
 93
        1
176
     1
 44
0.0
176
     1
173
     0
176
     1
  0
VISUALSTYLE
  5
33
102
{ACAD_REACTORS
330
2A
102
}
330
2A
100
AcDbVisualStyle
  2
Realistic
 70
     8
177
     2
291
     0
 71
     2
176
     1
 72
     2
176
     1
 73
     0
176
     1
 90
        0
176
     1
 40
-0.6
176
     1
 41
-30.0
176
     1
 62
     5
 63
     7
421
 16777215
176
     1
 74
     1
176
     1
 91
        0
176
     1
 64
     7
176
     1
 65
   257
176
     1
 75
     1
176
     1
175
     1
176
     1
 42
1.0
176
     1
 92
        8
176
     1
 66
     8
424
  7895160
176
     1
 43
1.0
176
     1
 76
     1
176
     1
 77
     6
176
     1
 78
     2
176
     1
 67
     7
176
     1
 79
     5
176
     1
170
     0
176
     1
171
     0
176
     1
290
     0
176
     1
 93
       13
176
     1
 44
0.0
176
     1
173
     0
176
     1
  0
VISUALSTYLE
  5
37
102
{ACAD_REACTORS
330
2A
102
}
330
2A
100
AcDbVisualStyle
  2
Thicken
 70
    13
177
     2
291
     1
 71
     2
176
     1
 72
     2
176
     1
 73
     0
176
     1
 90
        0
176
     1
 40
-0.6
176
     1
 41
-30.0
176
     1
 62
     5
 63
     7
421
 16777215
176
     1
 74
     1
176
     1
 91
        4
176
     1
 64
     7
176
     1
 65
   257
176
     1
 75
     1
176
     1
175
     1
176
     1
 42
1.0
176
     1
 92
       12
176
     1
 66
     7
176
     1
 43
1.0
176
     1
 76
     1
176
     1
 77
     6
176
     1
 78
     2
176
     1
 67
     7
176
     1
 79
     5
176
     1
170
     0
176
     1
171
     0
176
     1
290
     0
176
     1
 93
        1
176
     1
 44
0.0
176
     1
173
     0
176
     1
  0
ENDSEC
  0
EOF
